<?xml version="1.0" encoding="UTF-8" standalone="no"?>
<!-- Created with Inkscape (http://www.inkscape.org/) -->

<svg
   width="149.13589mm"
   height="147.36076mm"
   viewBox="0 0 149.13589 147.36076"
   version="1.1"
   id="svg1"
   inkscape:export-filename="hand_v1.svg"
   inkscape:export-xdpi="96"
   inkscape:export-ydpi="96"
   xmlns:inkscape="http://www.inkscape.org/namespaces/inkscape"
   xmlns:sodipodi="http://sodipodi.sourceforge.net/DTD/sodipodi-0.dtd"
   xmlns="http://www.w3.org/2000/svg"
   xmlns:svg="http://www.w3.org/2000/svg">
  <sodipodi:namedview
     id="namedview1"
     pagecolor="#ffffff"
     bordercolor="#000000"
     borderopacity="0.25"
     inkscape:showpageshadow="2"
     inkscape:pageopacity="0.0"
     inkscape:pagecheckerboard="0"
     inkscape:deskcolor="#d1d1d1"
     inkscape:document-units="mm">
    <inkscape:page
       x="0"
       y="0"
       width="149.13589"
       height="147.36076"
       id="page2"
       margin="0"
       bleed="0" />
  </sodipodi:namedview>
  <defs
     id="defs1" />
  <g
     inkscape:label="Layer 1"
     inkscape:groupmode="layer"
     id="layer1"
     transform="translate(-8.8595591,-76.024076)">
    <path
       style="fill:#000000;stroke-width:0.264583"
       id="path5"
       d="m 12.130915,206.47604 c 2.905253,-1.33661 5.445977,-3.37231 7.984473,-5.29097 5.929451,-4.67446 11.650705,-9.60167 17.377397,-14.5197 7.692157,-6.42051 15.228551,-13.02283 22.764509,-19.62482 6.662915,-5.92259 13.372343,-11.79209 20.190185,-17.5359 2.916136,-2.52684 5.842259,-5.04412 8.73144,-7.60152 0.333618,-0.36288 0.889987,-0.49395 1.088993,-0.9641 0.01416,-0.1977 0.04732,-0.30063 0.168347,-0.51609 0.408866,-0.63899 0.789786,-1.2954 1.199798,-1.93384 0.956344,-1.46787 2.002091,-2.87477 3.013596,-4.3049 1.232919,-1.6714 2.41341,-3.38296 3.557683,-5.11635 1.021667,-1.38393 2.006254,-2.79409 2.995174,-4.20133 0.64211,-0.9121 1.37453,-1.75399 2.07015,-2.62386 0.31618,-0.39147 0.55375,-0.84387 0.8877,-1.22088 0.14025,-0.12899 0.27722,-0.22888 0.38095,-0.38843 0,0 -3.43535,-2.01617 -3.43535,-2.01617 v 0 c -0.10107,0.13255 -0.25112,0.22309 -0.34874,0.36019 -0.31752,0.39582 -0.57022,0.83666 -0.864827,1.24874 -0.684882,0.88573 -1.402649,1.74695 -2.039938,2.6688 -0.974497,1.41976 -1.952156,2.83711 -2.961206,4.2327 -1.134964,1.73402 -2.325782,3.43328 -3.552653,5.10318 -1.021252,1.43114 -2.087046,2.82975 -3.07386,4.28486 -0.430006,0.63428 -0.838205,1.28271 -1.267587,1.91749 -0.05616,0.0919 -0.357129,0.6018 -0.240348,0.60685 0.0089,0.16669 -0.836707,0.64464 -0.872617,0.82848 -2.716339,2.6763 -5.501534,5.28446 -8.347344,7.82266 -6.678488,5.88342 -13.42612,11.68775 -20.059192,17.6225 -7.474839,6.67168 -15.03367,13.24937 -22.775709,19.61058 -5.791042,4.88663 -11.597032,9.76089 -17.654721,14.31727 -2.585142,1.86845 -5.169001,3.91599 -8.1876591,5.03262 z" />
    <path
       style="fill:#000000;stroke-width:0.264583"
       id="path7"
       d="m 13.467238,206.79727 c 2.937181,0.93304 5.804584,2.07692 8.66408,3.2225 4.995808,2.03361 9.969116,4.11356 14.88372,6.33635 3.389582,1.57423 6.845694,3.00332 10.17544,4.70272 1.384642,0.66987 2.734226,1.40723 4.119232,2.07601 1.529019,0.89291 -3.790167,-0.82146 -3.077382,-1.76504 0.783344,-1.03699 2.391659,1.02126 3.613677,1.46357 0.0071,0.003 -0.140883,-0.36687 -0.163362,-0.4051 -0.147256,-0.22044 -0.400166,-0.31671 -0.529982,-0.55939 -0.195786,-0.21713 -0.300661,-0.49371 -0.462393,-0.73349 -0.134885,-0.1621 -0.249248,-0.29793 -0.315955,-0.49941 -0.03972,-0.22268 -0.03415,-0.44941 -0.03729,-0.67458 -1.11e-4,-0.46037 -0.02098,-0.9198 0.02011,-1.37859 0.223242,-1.65706 0.859293,-3.23435 1.423871,-4.79788 1.299943,-3.17436 2.735869,-6.29096 4.090448,-9.44209 1.300099,-3.06915 2.761596,-6.06459 4.1973,-9.07127 1.05048,-2.11018 1.921634,-4.30108 2.941261,-6.42561 0.904029,-1.82741 1.793592,-3.66083 2.592869,-5.53677 0.887249,-1.92743 1.796458,-3.84468 2.725457,-5.75231 0.763749,-1.40123 1.385168,-2.87612 2.144051,-4.27921 0.341196,-0.65542 0.744675,-1.27228 1.068332,-1.9369 0.151093,-0.18139 -0.06988,0.0567 0.15987,0.15839 1.436753,0.59554 -4.542222,-2.5832 -3.011041,-1.67926 1.1635,0.68688 2.332252,1.36482 3.498379,2.04723 0.469199,0.23464 1.028946,0.24105 1.557817,0.28135 1.78409,0.0643 3.571152,0.0494 5.356418,0.0521 2.251583,-0.003 4.503163,0.001 6.754749,7.9e-4 2.204206,0.0745 4.39231,-0.0413 6.581393,-0.2866 1.99353,-0.23128 3.943552,-0.65212 5.850398,-1.2719 1.844965,-0.58442 3.504465,-1.56113 5.124025,-2.59724 2.06454,-1.26045 3.98772,-2.73118 5.86659,-4.24959 2.06327,-1.66016 3.97067,-3.49751 5.93363,-5.27109 1.82378,-1.69027 3.6124,-3.41408 5.35432,-5.1887 1.87497,-1.97451 3.65635,-4.03641 5.29054,-6.21446 1.54002,-1.97779 2.6293,-4.218 3.649,-6.49166 0.81103,-1.81598 1.59824,-3.64449 2.28122,-5.51297 0.36326,-1.07748 0.68954,-2.16693 1.00614,-3.25894 0.33597,-1.16151 0.57896,-2.34019 0.72802,-3.53952 0.19486,-1.11175 0.34353,-2.23058 0.45226,-3.35389 0.0505,-0.50551 0.079,-1.01292 0.0914,-1.52068 0.005,-0.16858 0.002,-0.33723 0.003,-0.50587 0,0 -3.55049,-1.80622 -3.55049,-1.80622 v 0 c 0.003,0.16826 0.003,0.3365 0.007,0.50475 0.005,0.50495 -0.005,1.01003 -0.0382,1.51403 -0.0809,1.1252 -0.21528,2.24437 -0.42223,3.35393 -0.13675,1.17948 -0.36847,2.33529 -0.71627,3.47174 -0.32422,1.08472 -0.60443,2.18282 -0.95563,3.25954 -0.66964,1.86724 -1.38269,3.71858 -2.19605,5.52867 -1.00034,2.25085 -2.12396,4.43934 -3.61204,6.41449 -1.62618,2.16234 -3.3626,4.2377 -5.24979,6.17876 -1.7527,1.75673 -3.55782,3.45816 -5.36368,5.15991 -1.94093,1.78422 -3.83839,3.62086 -5.91158,5.25467 -1.89318,1.48128 -3.79243,2.96555 -5.85849,4.20291 -1.624417,0.98486 -3.281579,1.92378 -5.104013,2.49699 -1.885918,0.59784 -3.817043,0.99982 -5.784191,1.2241 -2.182664,0.23913 -4.363051,0.30303 -6.558714,0.25102 -2.250482,0.002 -4.50098,0.0106 -6.75145,-2.3e-4 -1.804392,-0.009 -3.613528,0.007 -5.413078,-0.14157 -0.522626,-0.0677 -1.057145,-0.14412 -1.509467,-0.43023 8.532038,5.02931 -0.192198,-0.21074 -0.530574,-0.32422 -0.248388,-0.0587 -0.362394,0.13543 -0.46397,0.33844 -0.28692,0.67506 -0.687896,1.28748 -1.006605,1.94715 -0.725638,1.42654 -1.343067,2.90712 -2.088523,4.32429 -0.930505,1.91408 -1.843786,3.8361 -2.7305,5.77095 -0.802047,1.86926 -1.708854,3.68732 -2.596711,5.51679 -1.008284,2.13351 -1.845035,4.33955 -2.8707,6.46507 -1.439627,3.0116 -2.832941,6.04413 -4.185213,9.09605 -1.343586,3.1598 -2.762525,6.28699 -4.124119,9.43894 -0.637045,1.55543 -1.327777,3.13383 -1.620327,4.79764 -0.07463,0.46726 -0.07046,0.93449 -0.07233,1.40699 -0.0043,0.2426 -0.0061,0.48569 0.0087,0.72794 0.0079,0.25179 0.04619,0.50346 0.236832,0.68067 0.191865,0.22589 0.337301,0.46767 0.4588,0.74133 0.188077,0.15182 0.221311,0.55329 0.528169,0.55162 2.001118,1.99167 7.950552,3.36479 0.20559,-0.17705 -1.346539,-0.64523 -2.663497,-1.35017 -4.009266,-1.99721 -3.287429,-1.634 -6.691826,-3.01444 -10.021088,-4.55981 -4.926578,-2.22625 -9.924818,-4.279 -14.920059,-6.34559 -2.954816,-1.19413 -5.913477,-2.39398 -8.942541,-3.38914 z" />
    <path
       style="fill:#000000;stroke-width:0.264583"
       id="path8"
       d="m 126.54244,78.72667 c 1.17882,-0.025 2.35811,-0.01585 3.53714,-0.01609 1.08459,0.03244 2.17666,-0.06302 3.25594,0.06245 0.97958,0.129466 1.95761,0.311965 2.91354,0.56279 1.0313,0.271402 2.07335,0.519861 3.07763,0.882782 1.00369,0.362289 1.99961,0.746501 2.99256,1.13923 0.46302,0.235101 0.9503,0.413351 1.40503,0.66544 0.14323,0.0794 0.5636,0.333711 0.42102,0.253167 -2.9343,-1.657647 -3.91167,-2.320417 -2.50369,-1.386248 0.90115,0.590214 1.71671,1.294035 2.5091,2.020258 0.88026,0.896731 1.6937,1.857306 2.49835,2.821773 0.98005,1.277978 2.04335,2.48846 3.02702,3.763098 0.91964,1.248132 1.7114,2.58369 2.50575,3.913317 0.50175,0.800552 0.94927,1.62883 1.3326,2.4916 0.29464,0.611378 0.42608,1.278313 0.62103,1.923581 0.14676,0.445977 0.23652,0.904367 0.28538,1.370291 0.0305,0.412398 0.0298,0.826571 0.0265,1.239871 0.0367,0.40606 -0.0315,0.78036 -0.13939,1.16826 -0.0868,0.38857 -0.27639,0.73957 -0.40229,1.11509 -0.14298,0.39137 -0.27881,0.79137 -0.44762,1.1726 -0.16484,0.40623 -0.34715,0.79882 -0.54491,1.18991 -0.24075,0.4483 -0.52951,0.86748 -0.82716,1.28039 -0.36489,0.42734 -0.69337,0.87674 -1.01287,1.33844 -0.31005,0.51893 -0.61232,1.04858 -0.97922,1.52952 -0.35414,0.49036 -0.68946,0.99904 -1.07466,1.46518 -0.31554,0.44234 -0.70789,0.81817 -1.04988,1.23946 -0.29581,0.37802 -0.61701,0.73481 -0.94876,1.08135 -0.35087,0.36498 -0.70704,0.72501 -1.06731,1.08074 -0.41432,0.27316 -0.8023,0.57654 -1.13614,0.94377 -0.37664,0.37537 -0.84507,0.62763 -1.28509,0.9191 -0.45746,0.28264 -0.92341,0.55047 -1.40035,0.801 -0.47916,0.20382 -0.90931,0.50323 -1.38092,0.7289 -0.49014,0.23572 -1.01174,0.38577 -1.51483,0.58613 -0.70517,0.33528 -1.4273,0.63211 -2.17829,0.84693 -0.82814,0.28818 -1.68895,0.4334 -2.52452,0.69343 -0.51389,0.19328 -1.05793,0.24496 -1.60151,0.27166 -0.58208,0.0661 -1.15213,0.23052 -1.74092,0.29728 -0.63828,0.0675 -1.28082,0.0714 -1.92193,0.0766 -0.78167,0.003 -1.56332,0.004 -2.34499,0.003 -0.70445,0.0632 -1.37025,-0.0692 -2.05607,-0.19808 -0.60519,-0.0853 -1.18547,-0.27388 -1.77892,-0.41583 0.63792,0.2968 -1.35885,-0.6851 -0.70397,-0.30354 6.61134,3.85199 1.72996,0.91452 -0.57004,-0.35668 5.94262,3.66239 3.16938,1.88986 1.91317,0.89564 -0.63696,-0.47629 -1.29019,-0.93062 -1.93903,-1.39061 -0.62046,-0.44804 -1.16137,-0.99335 -1.71581,-1.51832 -0.39745,-0.42879 -0.87061,-0.7645 -1.34479,-1.10094 -0.39706,-0.29966 -0.76988,-0.62452 -1.09888,-0.99756 -0.31283,-0.37656 -0.6411,-0.73951 -0.97826,-1.09429 -0.33764,-0.3785 -0.62908,-0.80148 -0.88688,-1.23805 -0.32754,-0.55176 -0.62885,-1.11863 -0.93574,-1.68209 -0.19043,-0.40499 -0.41743,-0.78919 -0.59727,-1.19923 -0.20728,-0.38735 -0.43856,-0.76096 -0.62019,-1.16134 -0.19167,-0.37898 -0.37305,-0.76409 -0.57178,-1.13999 -0.1677,-0.43615 -0.37472,-0.85796 -0.53937,-1.29527 -0.22137,-0.5195 -0.37331,-1.05398 -0.50983,-1.60023 -0.18585,-0.59434 -0.29618,-1.20652 -0.35941,-1.82493 -0.0602,-0.61654 -0.0535,-1.23662 -0.0533,-1.85529 0.003,-0.45323 0.0102,-0.906444 0.0102,-1.359686 0.002,-0.364588 0.004,-0.729207 0.002,-1.093801 1.5e-4,-0.361158 0.002,-0.722331 -4e-5,-1.083487 -5.3e-4,-0.435729 -0.003,-0.871447 -0.004,-1.307184 -0.002,-0.492998 8e-4,-0.985999 2.1e-4,-1.479 0.003,-0.438073 -7.9e-4,-0.876147 0.002,-1.314225 -0.0529,-0.373348 0.0707,-0.688094 0.19019,-1.029801 0.11054,-0.242514 0.11094,-0.513127 0.18052,-0.765167 0.13096,-0.217202 0.22023,-0.452096 0.29725,-0.693036 0.0536,-0.296767 0.20381,-0.559882 0.29772,-0.844955 0.15626,-0.312293 0.30531,-0.629073 0.47422,-0.935424 0.16806,-0.340765 0.38628,-0.652695 0.53455,-1.003929 0.10365,-0.394838 0.37098,-0.701728 0.57402,-1.044546 0.23237,-0.41352 0.52281,-0.787773 0.82995,-1.147485 0.31572,-0.456382 0.72304,-0.839541 1.07884,-1.264433 0.25721,-0.378201 0.64793,-0.629021 0.94843,-0.963618 0.29738,-0.267573 0.56665,-0.565142 0.86648,-0.830035 0.26804,-0.255196 0.51919,-0.522996 0.84059,-0.716597 0.35063,-0.288497 0.63329,-0.636239 1.02293,-0.873197 0.33483,-0.231095 0.64487,-0.486645 1.0026,-0.680802 0.30313,-0.158213 0.54612,-0.384257 0.87199,-0.495406 0.25186,-0.226155 0.60558,-0.272486 0.8535,-0.484407 0.22228,-0.19749 0.51384,-0.218146 0.7592,-0.359119 0.33802,-0.161639 0.64345,-0.373075 0.97667,-0.550113 0.17858,-0.09553 0.39849,-0.118341 0.59999,-0.10586 0.16122,0.0037 0.32215,0.0085 0.48338,0.0098 0.21372,0.0013 0.42745,-5.29e-4 0.64118,-1.59e-4 0.19294,0.0021 0.38585,8e-5 0.5788,0.0021 0.0969,-0.0019 0.19393,-0.0013 0.29089,-5.29e-4 0,0 -3.22499,-2.343063 -3.22499,-2.343063 v 0 c -0.0975,5.29e-4 -0.1951,0.0013 -0.29263,-5.29e-4 -0.19093,0.0021 -0.38183,-7.4e-5 -0.57276,0.0016 -0.21457,-2.64e-4 -0.42913,-0.0026 -0.64367,-0.0052 -0.16718,-0.0016 -0.33435,-0.0024 -0.50072,0.01842 -0.24366,0.04462 -0.48083,0.115271 -0.6898,0.253563 -0.31547,0.183727 -0.62298,0.381119 -0.95972,0.525172 -0.29096,0.09476 -0.55327,0.235508 -0.80097,0.416266 -0.27835,0.123573 -0.53426,0.281945 -0.80744,0.415046 -0.3127,0.155448 -0.57927,0.383072 -0.89106,0.541505 -0.35252,0.215405 -0.67377,0.473495 -1.01796,0.701526 -0.36503,0.26392 -0.65565,0.605981 -1.0175,0.873694 -0.32143,0.227148 -0.60096,0.493453 -0.87932,0.769901 -0.29412,0.284448 -0.58866,0.567475 -0.88142,0.85331 -0.32075,0.323588 -0.68345,0.609836 -0.94551,0.988642 -0.36093,0.420799 -0.76305,0.807516 -1.08746,1.257766 -0.32095,0.376952 -0.60807,0.78142 -0.86491,1.204664 -0.21427,0.357624 -0.49956,0.680886 -0.60658,1.093726 -0.13429,0.341138 -0.36052,0.631947 -0.51088,0.965147 -0.18146,0.33024 -0.34742,0.666954 -0.52031,1.001784 -0.0841,0.291494 -0.24487,0.555908 -0.31046,0.848217 -0.0587,0.236408 -0.14298,0.457338 -0.27288,0.664816 -0.11098,0.251413 -0.0902,0.521811 -0.18482,0.781907 -0.12463,0.379143 -0.30541,0.73456 -0.24645,1.147273 0.003,0.438926 -8e-4,0.877843 0.002,1.316763 -5.3e-4,0.493072 0.002,0.986144 2.1e-4,1.479214 -10e-4,0.43448 -0.003,0.868942 -0.004,1.303414 -0.002,0.361114 -1.2e-4,0.722244 -5e-5,1.08336 -0.002,0.364683 -1.4e-4,0.729385 2.3e-4,1.094071 -0.002,0.456144 0.002,0.912315 0.004,1.368451 0.002,0.629082 -0.004,1.259245 0.0277,1.887515 0.0664,0.63662 0.1538,1.27368 0.33845,1.88851 0.16514,0.53656 0.21303,1.10662 0.49505,1.60664 0.12048,0.47473 0.38759,0.87718 0.5099,1.35222 0.17902,0.38021 0.33295,0.76526 0.58935,1.10369 0.13733,0.43824 0.38147,0.81175 0.59002,1.21697 0.26185,0.34733 0.38074,0.82349 0.6096,1.19491 0.30816,0.56847 0.63236,1.12165 0.93008,1.69623 0.2694,0.45046 0.53956,0.89479 0.84997,1.32092 0.3381,0.34818 0.67537,0.69814 0.98439,1.07277 0.32554,0.38994 0.64903,0.78044 1.07579,1.0616 0.42584,0.40401 0.99323,0.62271 1.36247,1.09202 0.58863,0.49266 1.08802,1.0852 1.70463,1.5443 0.61206,0.50923 1.31148,0.91447 1.95319,1.38725 1.51549,1.23848 2.90232,2.1981 4.82588,3.06372 1.46625,0.82802 -3.62973,-2.04902 -3.00741,-1.73988 1.42303,0.70689 2.7541,1.87269 4.33958,2.30867 0.59227,0.14492 1.17966,0.30952 1.78508,0.39371 0.69267,0.12678 1.3844,0.16719 2.08892,0.13298 0.78576,2.6e-4 1.57153,0.006 2.35727,-1.6e-4 0.65097,-0.009 1.3036,-0.0228 1.94929,-0.1146 0.58088,-0.0853 1.15008,-0.24868 1.73833,-0.27138 0.56003,-0.0536 1.11225,-0.15115 1.63951,-0.35525 0.8317,-0.25768 1.69124,-0.41047 2.51536,-0.69653 0.75318,-0.24106 1.47891,-0.54783 2.20694,-0.85458 0.5278,-0.1761 1.0368,-0.38915 1.54295,-0.62049 0.46582,-0.242 0.91219,-0.52012 1.38918,-0.74036 0.47771,-0.26932 0.96554,-0.5248 1.42052,-0.83052 0.46059,-0.31024 0.9497,-0.58606 1.33516,-0.9937 0.34525,-0.35159 0.74195,-0.63216 1.12916,-0.93413 0.3583,-0.36316 0.72174,-0.72122 1.07429,-1.09005 0.33368,-0.35926 0.66449,-0.72102 0.96596,-1.10827 0.33518,-0.42435 0.73049,-0.7982 1.04013,-1.24329 0.37901,-0.47837 0.72856,-0.98055 1.08187,-1.47838 0.36075,-0.49173 0.67627,-1.01574 0.98969,-1.5388 0.32107,-0.45864 0.6493,-0.90633 1.01077,-1.33484 0.30481,-0.43357 0.61325,-0.86444 0.86857,-1.32924 0.19297,-0.39854 0.38735,-0.79 0.54773,-1.20324 0.18142,-0.39069 0.32054,-0.8087 0.47163,-1.2109 0.11951,-0.38514 0.33256,-0.73133 0.40805,-1.12997 0.1183,-0.41929 0.24647,-0.81781 0.19487,-1.26066 -0.002,-0.42353 0.002,-0.84713 -0.0144,-1.27048 -0.0287,-0.49304 -0.10841,-0.982478 -0.26446,-1.452349 -0.19509,-0.662003 -0.34705,-1.337511 -0.61095,-1.977501 -0.40224,-0.87389 -0.80109,-1.746782 -1.34599,-2.546233 -0.80039,-1.344256 -1.62709,-2.676639 -2.51482,-3.964991 -0.96496,-1.28743 -2.04547,-2.4805 -3.00592,-3.771992 -0.79908,-0.968309 -1.60965,-1.925585 -2.45162,-2.857339 -0.78764,-0.739796 -1.59266,-1.465318 -2.48585,-2.077651 -1.91619,-1.294842 -3.91687,-2.49074 -6.05384,-3.381182 -0.99537,-0.386895 -1.99029,-0.777279 -3.00036,-1.124193 -1.02008,-0.33337 -2.06373,-0.596358 -3.10424,-0.857258 -0.97499,-0.217903 -1.95411,-0.433512 -2.95157,-0.517181 -1.08553,-0.06426 -2.17442,-0.0079 -3.26138,-0.02426 -1.1938,-2.54e-4 -2.38784,0.0086 -3.58145,-0.01609 z" />
    <path
       style="fill:#000000;stroke-width:0.264583"
       id="path9"
       d="m 104.41506,120.74506 c 0.60935,-1.21355 1.36777,-2.3413 2.1033,-3.4799 0.84135,-1.24125 1.74091,-2.44246 2.6255,-3.6532 0.63199,-0.8174 1.19867,-1.68184 1.83829,-2.49352 0.24495,-0.30971 0.50806,-0.6046 0.79075,-0.88024 0.19632,-0.14068 0.30488,-0.35941 0.46321,-0.52713 0.13717,-0.22921 0.34486,-0.39521 0.50494,-0.60417 0.11745,-0.21939 0.30596,-0.30978 0.45178,-0.5109 0.0886,-0.11975 0.1513,-0.24472 0.19397,-0.38614 0,0 -3.52519,-1.86728 -3.52519,-1.86728 v 0 c 0.002,0.0739 -0.0448,0.15194 -0.0947,0.22159 -0.13564,0.17435 -0.35001,0.28159 -0.43884,0.49719 -0.17929,0.1949 -0.3444,0.39036 -0.50471,0.59994 -0.13987,0.1783 -0.27851,0.35283 -0.45273,0.50254 -0.27084,0.30335 -0.5411,0.6089 -0.77964,0.93864 -0.6137,0.83282 -1.17303,1.70344 -1.79664,2.52903 -0.8797,1.22244 -1.78771,2.42586 -2.62657,3.67661 -0.73947,1.14217 -1.48821,2.27866 -2.18005,3.45049 z" />
    <circle
       style="fill:#000000;stroke-width:0.264583"
       id="path10"
       cx="132.11044"
       cy="100.21546"
       r="6.705194" />
  </g>
</svg>
