<?xml version="1.0" encoding="UTF-8" standalone="no"?>
<!-- Created with Inkscape (http://www.inkscape.org/) -->

<svg
   width="117.56972mm"
   height="103.47922mm"
   viewBox="0 0 117.56972 103.47922"
   version="1.1"
   id="svg1"
   inkscape:export-filename="counterfeit_v1.svg"
   inkscape:export-xdpi="96"
   inkscape:export-ydpi="96"
   xmlns:inkscape="http://www.inkscape.org/namespaces/inkscape"
   xmlns:sodipodi="http://sodipodi.sourceforge.net/DTD/sodipodi-0.dtd"
   xmlns="http://www.w3.org/2000/svg"
   xmlns:svg="http://www.w3.org/2000/svg">
  <sodipodi:namedview
     id="namedview1"
     pagecolor="#ffffff"
     bordercolor="#000000"
     borderopacity="0.25"
     inkscape:showpageshadow="2"
     inkscape:pageopacity="0.0"
     inkscape:pagecheckerboard="0"
     inkscape:deskcolor="#d1d1d1"
     inkscape:document-units="mm">
    <inkscape:page
       x="0"
       y="0"
       width="117.56972"
       height="103.47922"
       id="page2"
       margin="0"
       bleed="0" />
  </sodipodi:namedview>
  <defs
     id="defs1" />
  <g
     inkscape:label="Layer 1"
     inkscape:groupmode="layer"
     id="layer1"
     transform="translate(-43.609421,-96.292192)">
    <path
       style="fill:#000000;stroke-width:0.264583"
       id="path12"
       d="m 157.97525,174.62093 c -2.24534,0.0414 -4.49128,0.0539 -6.73694,0.0703 -3.00938,0.009 -6.0187,-0.01 -9.02795,-0.036 -1.08314,-0.0112 -2.16631,-0.0205 -3.24945,-0.0323 -0.74788,-0.041 -1.46919,0.20075 -2.17573,0.42153 -2.41278,0.93829 -4.69692,2.17429 -6.98278,3.38114 -3.0499,1.69536 -6.08277,3.42461 -9.17726,5.03772 -1.99618,1.05545 -3.95286,2.18177 -5.92198,3.28599 -1.79041,1.02053 -3.58407,2.03559 -5.3838,3.04007 -2.59119,1.47013 -5.27006,2.75618 -8.01425,3.91145 -3.395303,1.36194 -6.921796,2.3204 -10.506956,3.01724 -2.91085,0.51705 -5.863677,0.68533 -8.813871,0.76228 -2.014593,0.0401 -4.029649,0.0211 -6.044443,0.0144 -2.012244,0.0304 -4.009814,-0.2276 -5.982745,-0.59941 -1.933679,-0.39927 -3.821441,-0.94523 -5.657332,-1.66881 -0.710565,-0.32176 -1.416209,-0.65888 -2.102141,-1.03091 -0.213185,-0.11563 -0.842753,-0.48049 -0.632021,-0.36044 2.938352,1.67389 3.645588,2.13032 2.181834,1.20953 -1.093311,-0.72969 -2.18308,-1.46341 -3.288062,-2.17536 -1.032309,-0.68936 -2.045676,-1.40562 -2.961349,-2.24524 -0.908005,-0.82918 -1.625176,-1.83059 -2.361795,-2.80728 -0.743654,-1.02146 -1.506432,-2.03286 -2.14563,-3.12398 -0.64225,-1.17608 -1.182839,-2.39979 -1.736927,-3.61829 -0.582083,-1.16902 -1.123418,-2.35835 -1.641818,-3.5568 -0.522082,-1.24429 -0.947529,-2.52839 -1.325095,-3.82326 -0.381436,-1.64894 -0.604782,-3.33286 -0.841131,-5.0079 -0.33718,-2.6214 -0.391904,-5.26636 -0.436526,-7.90542 -0.07583,-2.64574 0.02281,-5.2874 0.339379,-7.91447 0.360749,-2.85835 1.022564,-5.65432 1.959737,-8.37491 0.85703,-2.38391 1.993222,-4.64923 3.197823,-6.87268 0.956191,-1.71637 2.086742,-3.32387 3.235973,-4.91428 1.43629,-1.96233 3.137672,-3.70088 4.878109,-5.39042 1.822612,-1.71482 3.621022,-3.45522 5.441212,-5.17253 1.71536,-1.73264 3.593328,-3.28809 5.507945,-4.79292 1.636157,-1.27144 3.357629,-2.43154 4.990957,-3.70552 1.380919,-1.09876 2.763568,-2.19331 4.155628,-3.27833 1.649132,-1.21044 3.326598,-2.38366 5.021011,-3.5301 1.407025,-0.9365 2.794934,-1.90155 4.202462,-2.83714 1.166095,-0.69362 2.318956,-1.40879 3.514997,-2.0499 0.720418,-0.34816 1.460352,-0.68183 2.222027,-0.93152 0.507859,-0.2161 1.058836,-0.32838 1.565396,-0.54544 0.513424,-0.18624 0.961448,-0.514875 1.4409,-0.771547 0.420706,-0.283284 0.880287,-0.459931 1.338302,-0.665496 0.36904,-0.199774 0.75497,-0.311338 1.1687,-0.359116 0.25165,-0.0263 0.50519,-0.01558 0.75774,-0.01299 0.20684,0.0053 0.41372,0.0041 0.62059,0.0074 0.20885,-0.0011 0.41772,-0.0024 0.62657,-0.0011 0.008,0.04016 0.001,0.08665 0.0242,0.120489 0.053,0.07769 0.34404,0.150058 0.26287,0.102555 -6.246473,-3.655298 -3.993958,-2.441475 -2.97091,-1.650019 11.26731,6.739444 -2.457876,-1.712314 0.74289,0.509823 0.22234,0.129241 0.41747,0.303044 0.60486,0.478129 0.23329,0.140827 0.2749,0.414927 0.48069,0.57821 0.17738,0.234259 0.34548,0.487423 0.56997,0.682127 0.30031,0.27659 0.56677,0.582175 0.82319,0.900305 0.31484,0.47656 0.57311,0.98756 0.84288,1.49028 0.25634,0.319 0.40195,0.69891 0.5993,1.05087 0.19578,0.36782 0.30341,0.77109 0.45488,1.15838 0.1595,0.49171 0.30681,0.98959 0.44152,1.48927 0.0767,0.56581 0.2441,1.10957 0.3736,1.66387 0.0532,0.48664 0.19594,0.94617 0.34953,1.40795 0.11803,0.53867 0.18366,1.08289 0.31669,1.61976 0.14568,0.56274 0.14924,1.1449 0.2882,1.7083 0.0834,0.32265 0.19521,0.64091 0.25226,0.96982 0.0124,0.26737 0.2176,0.42768 0.30643,0.67085 1.01966,1.1543 2.35109,2.0057 3.9104,2.44898 0.28072,0.0179 0.57373,-5.3e-4 0.85934,-5.3e-4 0.44449,0.069 0.87275,0.22281 1.33168,0.27951 0.57714,0.007 1.12001,0.1579 1.6826,0.26567 0.80747,0.14314 1.62954,0.13851 2.44656,0.1535 0.98952,-0.051 1.96083,0.13942 2.94024,0.24532 0.94854,0.0597 1.87694,0.27645 2.7898,0.52891 0.24597,0.13034 0.52444,0.18147 0.77568,0.29812 0.11248,0.0522 0.42979,0.24766 0.32212,0.18613 -1.03895,-0.59369 -4.14175,-2.39878 -3.11595,-1.78265 0.14087,0.0846 8.75358,5.03939 0.49409,0.28705 1.21617,0.69857 2.43325,1.39557 3.64851,2.09571 0.45836,0.26407 0.0935,0.079 0.58619,0.31245 0.10472,0.0594 0.41857,0.23801 0.31417,0.17809 -3.17581,-1.82294 -4.01807,-2.37249 -2.74007,-1.54966 0.69782,0.43868 1.26344,1.01536 1.74929,1.67419 0.69367,1.00657 1.30586,2.06533 1.89192,3.13703 0.4595,0.87087 0.7673,1.80505 1.07307,2.73696 0.29642,0.94272 0.53072,1.90332 0.83537,2.84326 0.20097,0.55624 0.33099,1.13122 0.38515,1.71938 0.001,0.34161 0.037,0.66612 0.18713,0.97508 1.37985,3.7756 2.72789,1.67566 4.29965,2.16988 0.99091,0.35904 2.05233,0.47186 3.0819,0.68638 1.81524,0.35088 3.65916,0.56166 5.49721,0.76192 1.75317,0.18225 3.51671,0.21431 5.27755,0.24783 1.15601,0.0124 2.31211,0.024 3.46819,0.0169 0.95525,-0.004 1.9105,0.002 2.86575,-2e-4 0.96123,-0.002 1.92252,-0.004 2.88374,5.3e-4 0.53076,0.006 1.06157,0.006 1.59232,0.0123 1.67781,-0.0301 1.66965,0.58763 -2.75439,-1.82695 0.0799,0.0787 0.15472,0.13892 0.2579,0.18012 0,0 3.65232,1.58916 3.65232,1.58916 v 0 c -0.0438,-0.16408 -0.0798,-0.18883 -0.22075,-0.27819 -3.11458,-1.75312 -2.34626,-2.02761 -4.15064,-2.00039 -0.51951,0.006 -1.03909,0.006 -1.55861,0.0122 -0.96063,0.005 -1.92132,0.003 -2.88197,0.001 -0.95259,-0.002 -1.90516,0.007 -2.85775,0.007 -1.14485,-0.003 -2.28972,0.0144 -3.43456,-7.9e-4 -1.74609,-0.0209 -3.49369,-0.0705 -5.23103,-0.25923 -1.83964,-0.20793 -3.68508,-0.42354 -5.49705,-0.80885 -1.056,-0.22528 -2.12211,-0.40266 -3.15279,-0.73038 -0.16853,-0.0151 -0.35625,-0.0173 -0.52223,-0.0611 -0.0449,-0.0119 -0.17213,-0.0677 -0.13205,-0.0443 3.28271,1.91888 4.53031,1.63522 3.17262,1.91448 -0.23633,-0.23071 -0.31392,-0.46278 -0.29628,-0.79576 -0.0508,-0.6199 -0.14536,-1.23197 -0.36627,-1.81784 -0.33969,-0.92913 -0.58189,-1.89053 -0.84027,-2.84452 -0.33596,-0.94276 -0.606,-1.91061 -1.06306,-2.80781 -0.59606,-1.06945 -1.18532,-2.14349 -1.86759,-3.16184 -0.43092,-0.7173 -0.9822,-1.32617 -1.66969,-1.8104 -0.1,-0.0684 -0.19565,-0.14354 -0.29998,-0.20508 -1.23092,-0.72608 -2.46771,-1.44219 -3.70501,-2.15733 -0.20358,-0.11766 -0.41526,-0.22073 -0.62111,-0.33436 -0.0963,-0.0532 -0.38356,-0.21568 -0.28851,-0.16027 1.03903,0.60567 2.08036,1.20742 3.12055,1.81113 -1.2109,-0.70309 -2.42724,-1.39688 -3.63269,-2.10927 -1.0404,-0.61485 4.19376,2.40392 3.13754,1.81665 -1.67142,-0.92933 -3.01732,-2.00642 -4.791,-2.5183 -0.92394,-0.2387 -1.8674,-0.398 -2.8188,-0.47718 -0.98471,-0.11464 -1.9659,-0.2542 -2.96091,-0.21717 -0.81176,-0.0222 -1.6274,-0.0508 -2.42407,-0.22342 -0.56305,-0.11976 -1.1268,-0.19393 -1.69848,-0.25835 -0.4594,-0.0926 -0.90423,-0.26927 -1.38028,-0.24047 -0.26309,-0.005 -0.54236,0.0173 -0.76623,-0.14043 -1.112,-0.768 -0.65862,-0.45208 3.2238,1.88123 0.0334,0.0201 -0.0824,0.001 -0.11536,-0.0199 -0.098,-0.0621 -0.12783,-0.24414 -0.21258,-0.32017 -0.24535,-0.0159 -0.14523,-0.39694 -0.4214,-0.42273 -0.0375,-0.35466 -0.14257,-0.68935 -0.24408,-1.03138 -0.19016,-0.55272 -0.19338,-1.12212 -0.30049,-1.69422 -0.13062,-0.54255 -0.2645,-1.07167 -0.29954,-1.63141 -0.11993,-0.46754 -0.35605,-0.89347 -0.37419,-1.38518 -0.10516,-0.56632 -0.32174,-1.09794 -0.36418,-1.67487 -0.11624,-0.51842 -0.30848,-1.01315 -0.41015,-1.53396 -0.16049,-0.40019 -0.30018,-0.7894 -0.43665,-1.19459 -0.0543,-0.11282 -0.1399,-0.20874 -0.19389,-0.32172 -0.12338,-0.25818 -0.17069,-0.5591 -0.40313,-0.76141 -0.33209,-0.46089 -0.52354,-1.01418 -0.83227,-1.49183 -0.18368,-0.35673 -0.47889,-0.71397 -0.79046,-0.9595 -0.1723,-0.23485 -0.4352,-0.39851 -0.57998,-0.64372 -0.0848,-0.18061 -0.16379,-0.12322 -0.26633,-0.25559 -0.0633,-0.0817 -0.0486,-0.204046 -0.10065,-0.293419 -0.0212,-0.03641 -0.0598,-0.0593 -0.0898,-0.08896 -0.18703,-0.186621 -0.37669,-0.369173 -0.57135,-0.547923 -2.24798,-1.353526 -7.629844,-4.555691 -0.75022,-0.522515 -0.70988,-0.332446 0.37416,0.195022 -0.29183,-0.19571 -1.18195,-0.693441 -2.37707,-1.364178 -3.56472,-2.047792 -0.008,-0.0047 -0.21731,-0.136274 -0.2471,-0.139005 -0.0479,-0.0044 -0.0936,0.02252 -0.140419,0.03376 -0.209426,0.0013 -0.418873,-2.65e-4 -0.628277,-0.0028 -0.204883,0.0011 -0.409702,-0.0033 -0.614569,4e-5 -0.26543,0.003 -0.530871,0.0098 -0.791091,0.06906 -0.424355,0.09043 -0.817991,0.257188 -1.207937,0.445505 -0.479798,0.189881 -0.917734,0.440711 -1.362914,0.700304 -0.457671,0.263388 -0.907206,0.5543 -1.41007,0.725033 -0.520613,0.17468 -1.040937,0.346694 -1.554578,0.541602 -0.757327,0.292007 -1.508741,0.612656 -2.219245,1.005742 -1.194393,0.653928 -2.344891,1.384538 -3.503581,2.099088 -1.407988,0.93634 -2.793812,1.90533 -4.19911,2.84567 -1.683019,1.16754 -3.351868,2.35659 -5.007324,3.56271 -1.415351,1.06312 -2.813955,2.14397 -4.182896,3.26625 -1.624697,1.27752 -3.321952,2.46149 -4.95247,3.73216 -1.910882,1.52397 -3.799973,3.07873 -5.515869,4.82418 -1.841183,1.69554 -3.604308,3.47392 -5.424969,5.19152 -1.759403,1.70677 -3.516223,3.4314 -4.969293,5.41522 -1.144995,1.61334 -2.321674,3.20954 -3.245131,4.96525 -1.207489,2.24719 -2.309135,4.55367 -3.167684,6.95911 -0.976654,2.76961 -1.633784,5.51497 -2.03254,8.42704 -0.334314,2.64654 -0.433771,5.30807 -0.336809,7.97479 0.03771,2.64081 0.04725,5.29017 0.361463,7.91617 0.19976,1.68348 0.424445,3.37094 0.761685,5.03241 0.360259,1.31197 0.797677,2.60406 1.3037,3.86663 0.498912,1.20791 1.042985,2.40168 1.636088,3.56631 0.560319,1.22302 1.093774,2.45551 1.722065,3.64627 0.598918,1.12504 1.384416,2.13173 2.117542,3.17153 0.749311,0.97898 1.442522,2.01138 2.337689,2.86734 0.902295,0.87245 1.900732,1.61392 2.942519,2.31373 1.102296,0.71696 2.20853,1.42672 3.287363,2.17923 2.317096,1.47768 4.694843,2.90238 7.228525,3.98011 1.84155,0.69012 3.734239,1.20549 5.664843,1.5843 2.000009,0.35473 4.018994,0.61442 6.055452,0.56812 2.003936,0.005 4.008316,0.005 6.011569,-0.0549 2.944513,-0.11423 5.888477,-0.31679 8.791204,-0.85241 3.597349,-0.70169 7.103679,-1.76391 10.517489,-3.10125 2.78327,-1.14735 5.52287,-2.39999 8.15077,-3.87347 1.80029,-1.0092 3.60394,-2.01231 5.39724,-3.03362 1.94649,-1.1118 3.88475,-2.23819 5.84604,-3.32392 3.05953,-1.66538 6.09162,-3.38057 9.14697,-5.0538 2.30387,-1.18895 4.62159,-2.40107 7.08919,-3.2175 0.70443,-0.1856 1.41089,-0.35465 2.14505,-0.30822 1.0535,-0.0118 2.10702,-0.0211 3.16052,-0.0323 2.97622,-0.0267 5.95251,-0.0446 8.92886,-0.036 2.3102,0.0166 4.62065,0.0296 6.93054,0.0703 z" />
  </g>
</svg>
