<?xml version="1.0" encoding="UTF-8" standalone="no"?>
<!-- Created with Inkscape (http://www.inkscape.org/) -->

<svg
   width="152.01079mm"
   height="108.89298mm"
   viewBox="0 0 152.01079 108.89298"
   version="1.1"
   id="svg1"
   inkscape:export-filename="bird_v1.svg"
   inkscape:export-xdpi="96"
   inkscape:export-ydpi="96"
   xmlns:inkscape="http://www.inkscape.org/namespaces/inkscape"
   xmlns:sodipodi="http://sodipodi.sourceforge.net/DTD/sodipodi-0.dtd"
   xmlns="http://www.w3.org/2000/svg"
   xmlns:svg="http://www.w3.org/2000/svg">
  <sodipodi:namedview
     id="namedview1"
     pagecolor="#ffffff"
     bordercolor="#000000"
     borderopacity="0.25"
     inkscape:showpageshadow="2"
     inkscape:pageopacity="0.0"
     inkscape:pagecheckerboard="0"
     inkscape:deskcolor="#d1d1d1"
     inkscape:document-units="mm">
    <inkscape:page
       x="-4.4479252e-14"
       y="0"
       width="152.01077"
       height="108.89298"
       id="page2"
       margin="0"
       bleed="0" />
  </sodipodi:namedview>
  <defs
     id="defs1" />
  <g
     inkscape:label="Layer 1"
     inkscape:groupmode="layer"
     id="layer1"
     transform="translate(-43.93938,-110.46608)">
    <path
       style="fill:#000000;stroke-width:0.264583"
       id="path10"
       d="m 85.124225,216.30187 c -1.165251,0.0241 -2.33101,0.0178 -3.496458,0.0142 -0.980572,-0.004 -1.961163,-0.006 -2.941743,-0.004 -0.943062,-0.0134 -1.877332,-0.19068 -2.816921,-0.27984 -0.904203,-0.12693 -1.825458,-0.22403 -2.719811,-0.41783 -1.004972,-0.26713 -2.031468,-0.46402 -3.015599,-0.80358 -1.091115,-0.33799 -2.156375,-0.75338 -3.248691,-1.08607 -0.840518,-0.28482 -1.650074,-0.63591 -2.438252,-1.04215 -0.142796,-0.0646 -0.287404,-0.1254 -0.428387,-0.1939 -0.141856,-0.0689 -0.282326,-0.14094 -0.41982,-0.21819 -2.135616,-1.19997 4.205782,2.55088 2.039054,1.14006 -0.151979,-0.099 -0.300075,-0.20375 -0.450112,-0.30562 -1.029303,-0.72491 -2.00702,-1.50693 -2.903209,-2.39101 -1.102548,-1.01642 -2.165482,-2.06747 -3.183393,-3.1684 -0.712501,-0.76545 -1.447966,-1.50822 -2.158238,-2.27602 -0.573333,-0.58035 -1.031716,-1.25809 -1.519126,-1.90892 -0.478732,-0.59646 -0.836668,-1.27082 -1.186669,-1.9468 -0.496679,-0.84149 -0.84146,-1.75623 -1.202627,-2.66057 -0.39075,-1.11649 -0.909421,-2.18141 -1.347232,-3.27849 -0.614016,-1.57297 -1.113986,-3.18695 -1.612402,-4.79932 -0.646711,-1.9776 -1.070719,-4.01536 -1.446147,-6.05871 -0.21813,-1.56224 -0.474138,-3.11953 -0.682871,-4.6832 -0.20143,-1.01487 -0.368101,-2.03233 -0.459353,-3.06311 -0.09512,-1.54932 -0.09686,-3.10317 -0.112107,-4.6549 -0.01143,-2.09387 0.0051,-4.18775 0.0081,-6.28162 0.05908,-1.73133 0.325694,-3.45909 0.697034,-5.15005 0.273156,-1.26708 0.594334,-2.51747 1.013992,-3.74374 0.376447,-1.19724 0.772615,-2.38662 1.251093,-3.54731 0.644165,-1.51608 1.45302,-2.95865 2.231006,-4.40973 1.025144,-1.8052 2.165848,-3.53485 3.380886,-5.21642 1.176298,-1.54217 2.483358,-2.97464 3.741568,-4.44796 1.213681,-1.40149 2.442207,-2.79408 3.780814,-4.07813 1.057605,-1.01052 2.201187,-1.92292 3.393545,-2.76808 1.239711,-0.8883 2.596193,-1.59267 3.92879,-2.32744 0.864992,-0.46471 1.661909,-1.03778 2.515886,-1.52146 0.751097,-0.41881 1.496097,-0.87503 2.299753,-1.18732 0.673336,-0.23701 1.344766,-0.43601 2.053442,-0.53369 0.674177,-0.1553 1.336278,-0.34219 2.002383,-0.52279 0.602652,-0.27304 1.237993,-0.43993 1.835009,-0.72394 0.548799,-0.19595 1.080897,-0.42975 1.622838,-0.64283 0.635154,-0.20083 1.265555,-0.42344 1.910419,-0.59654 0.445746,-0.10909 0.903663,-0.11897 1.359773,-0.12515 0.548227,-0.14427 1.091239,-0.24096 1.615509,-0.45997 0.495858,-0.11962 0.963223,-0.31756 1.454832,-0.45126 0.70217,-0.14269 1.367573,-0.42862 2.02706,-0.70369 0.843122,-0.25872 1.655938,-0.602 2.487758,-0.89143 0.92192,-0.38806 1.902892,-0.57423 2.890547,-0.69447 0.544012,-0.15626 1.080981,-0.31287 1.642877,-0.3856 0.606203,-0.10142 1.206955,-0.24664 1.820365,-0.32645 0.67877,-0.20529 1.37166,-0.32272 2.0762,-0.38927 0.91139,-0.19881 1.83378,-0.3042 2.74811,-0.48852 0.85286,-0.15371 1.713,-0.19543 2.55457,-0.40377 0.61188,-0.16697 1.24475,-0.2056 1.87518,-0.23061 0.68074,-0.0182 1.36181,-0.0136 2.04272,-0.018 0.82203,-0.0192 1.64784,0.0568 2.4637,-0.0576 0.66624,-0.16183 1.3799,-0.12574 2.03067,-0.33976 0.37801,-0.16279 0.77301,-0.26312 1.18217,-0.29806 0.45084,-0.21235 0.93749,-0.32497 1.41227,-0.47434 0.74571,-0.28259 1.51514,-0.50565 2.28857,-0.69786 1.04048,-0.31953 2.10288,-0.56774 3.13996,-0.89667 0.86602,-0.29017 1.77178,-0.46018 2.6301,-0.76934 0.6745,-0.21509 1.34818,-0.44011 2.03493,-0.61479 0.8784,-0.13476 1.73923,-0.3522 2.60385,-0.55572 1.07709,-0.30019 2.18847,-0.44151 3.27623,-0.68734 0.84866,-0.16375 1.67965,-0.3963 2.52646,-0.56639 0.97384,-0.16088 1.96279,-0.18495 2.94757,-0.20025 0.70675,0.0371 1.43844,-0.0897 2.13282,0.0666 -0.16483,-0.2774 1.09181,0.5645 0.76698,0.38287 -5.0831,-2.84227 -3.67509,-2.27578 -2.55487,-1.34059 0.45269,0.50459 0.96868,0.94044 1.46473,1.39987 0.4052,0.36581 0.75958,0.77243 1.04131,1.23966 0.15079,0.28533 0.17651,0.60146 0.19135,0.91736 0.006,0.44804 0.002,0.89609 5.3e-4,1.34413 -0.0365,0.49059 0.12876,0.95463 0.23658,1.42509 0.0667,0.27303 0.0991,0.55184 0.11091,0.83219 0.005,0.20466 0.002,0.40935 0.005,0.61403 -0.002,0.28945 0.001,0.5789 0.003,0.86835 -0.0288,0.42393 0.15392,0.81268 0.24564,1.21774 0.0937,0.43179 0.1038,0.87492 0.11602,1.31477 0.009,0.46213 0.005,0.92441 0.005,1.38661 -0.005,0.6078 0.16474,1.19877 0.25265,1.79739 0.087,0.59786 0.10504,1.20261 0.11032,1.80584 -0.0258,0.53475 0.13043,1.04929 0.24433,1.56551 0.0679,0.33046 0.096,0.66699 0.10676,1.00365 -0.002,0.33934 -0.004,0.66634 0.12379,0.98516 0.15093,0.21187 0.17296,0.47672 0.28049,0.70576 0.16949,0.17639 0.20717,0.42938 0.40958,0.57199 0.16188,0.22859 0.30592,0.47271 0.44633,0.71769 0.12045,0.27314 0.32301,0.49892 0.44748,0.76859 2.74574,1.86119 2.40727,2.0508 4.17399,1.9941 0.40264,-0.013 0.80555,-0.0151 1.20837,-0.0183 0.56935,-0.001 1.13874,-0.004 1.7081,-0.001 0.62544,-0.004 1.2509,-0.001 1.87635,-0.002 0.46773,0.004 0.93547,0.005 1.40321,0.004 0.35545,0.004 0.7109,3e-5 1.06635,0.003 0.26079,-2.6e-4 0.52155,0.002 0.78233,0.002 0.31057,-0.002 0.62117,-0.003 0.93175,-0.002 0.11257,0.0367 0.24295,-0.0366 0.35587,-2.4e-4 0.11734,0.0377 0.27894,0.17075 0.39954,0.22796 -1.09474,-0.62507 -2.18948,-1.25014 -3.28422,-1.87521 0.24677,0.19002 0.49843,0.33802 0.62518,0.63288 0.0875,0.23587 0.0965,0.48755 0.10043,0.73621 -0.002,0.1926 -0.002,0.38517 -0.006,0.57774 -1e-5,0.18836 -5.2e-4,0.37667 -5.2e-4,0.56502 7.9e-4,0.32073 0.004,0.6413 0.0108,0.96199 0.004,0.58616 0.002,1.17229 0.002,1.75844 0.004,0.46035 -0.007,0.92066 -0.007,1.38098 -0.002,0.2674 -0.006,0.53486 -0.003,0.80226 -0.0148,0.25951 -0.009,0.49253 0.11307,0.72639 0.12058,0.24142 0.34833,0.39479 0.4854,0.62038 0.23516,0.26426 0.49974,0.48237 0.69627,0.77906 1.0458,1.15342 2.50142,2.15051 4.06327,2.27869 0.20048,-0.0124 0.40177,-0.0154 0.60267,-0.0184 0.22314,-0.002 0.4463,-0.004 0.66946,-0.004 0.21985,-0.0585 0.19001,0.10129 0.34567,0.18381 0.0888,0.0471 0.19139,0.0611 0.28633,0.0939 0.32944,0.0576 0.66375,0.0837 0.99811,0.0858 0.43315,-0.0686 0.79826,0.0961 1.20568,0.20151 0.41679,0.10951 0.75995,0.0767 1.12514,0.31908 0.16215,0.12702 0.42062,0.0968 0.5905,0.17866 0.0437,0.021 0.0668,0.0702 0.10026,0.10533 0.0515,0.0242 0.10295,0.0484 0.15442,0.0726 0.1977,0.15254 0.47169,0.0972 0.68884,0.17437 0.11726,0.0417 0.21441,0.12805 0.3292,0.17614 0.48397,0.0557 0.86355,0.35061 1.33021,0.46332 0.352,0.0323 0.58312,0.24666 0.8809,0.4174 1.24268,0.72032 -2.1249,-1.26108 -3.19893,-1.87153 -0.0301,-0.0171 0.0403,0.0565 0.0572,0.0867 0.0682,0.12271 0.12995,0.24486 0.20481,0.36418 0.18004,0.21249 0.20354,0.49454 0.22282,0.76133 0.0203,0.36763 0.0153,0.73611 0.0179,1.10418 -0.004,0.42666 1.5e-4,0.85334 -0.002,1.28 0.004,0.50596 0.001,1.01192 0.003,1.51789 -0.001,0.50898 -0.005,1.018 0.002,1.52695 -2.6e-4,0.57314 -0.005,1.1462 0.002,1.71932 5.3e-4,0.62577 -0.002,1.25151 -0.003,1.87726 -0.006,0.5381 -5.3e-4,1.07627 0.002,1.61438 -0.005,0.59547 -5.3e-4,1.19097 0.001,1.78644 0.004,0.72188 0.003,1.4437 0.002,2.16557 0.0579,0.66859 0.21217,1.32126 0.28876,1.9882 0.0962,0.58432 0.24271,1.15837 0.34885,1.74114 0.0541,0.31859 0.0692,0.64086 0.0781,0.96322 -0.0293,0.43224 0.0207,0.83841 0.14556,1.25116 0.18136,0.74756 0.16315,1.52161 0.24846,2.28163 0.0823,0.57658 0.21766,1.14401 0.28309,1.72291 0.0253,0.25552 0.0409,0.51159 0.0405,0.76834 0.003,0.1882 8e-4,0.37644 2.1e-4,0.56467 -0.0472,0.25578 0.091,0.41283 0.21376,0.61942 0.13757,0.13996 0.11153,0.33271 0.2354,0.49066 1.07094,1.02982 2.36085,2.08751 3.97814,2.3605 0.1787,0.20043 0.43193,0.18405 0.65696,0.27206 0.13796,0.054 0.2578,0.14725 0.39377,0.20606 0.67234,0.36152 1.42277,0.57991 2.14245,0.83716 0.96012,0.38231 1.98286,0.53153 2.97449,0.7977 0.8418,0.25199 1.71166,0.35395 2.58577,0.39993 0.80645,0.0332 1.61377,0.0316 2.42074,0.0311 0.73247,-0.002 1.465,-0.005 2.19747,-0.001 0.6737,0.002 1.34736,-0.004 2.02105,-0.005 0.79168,-0.003 1.58334,-0.003 2.375,0.004 0.097,2.7e-4 0.19401,8e-4 0.29102,0.001 0,0 -3.20025,-2.32513 -3.20025,-2.32513 v 0 c -0.096,2.6e-4 -0.19209,7.9e-4 -0.28813,0.001 -0.78824,0.007 -1.57648,0.006 -2.36474,0.004 -0.67738,-7.9e-4 -1.35475,-0.007 -2.03213,-0.003 -0.72943,0.006 -1.45894,0.007 -2.18839,0.007 -0.80008,-10e-5 -1.60098,0.002 -2.39981,-0.0495 -0.858,-0.0733 -1.70528,-0.20745 -2.53423,-0.44776 -0.99951,-0.23152 -1.99837,-0.45877 -2.95751,-0.83287 -0.73021,-0.25918 -1.46026,-0.52375 -2.14919,-0.88168 -0.35733,-0.16486 -0.72984,-0.30005 -1.09009,-0.45589 -1.2268,-0.6412 -0.22554,-0.1199 3.19337,1.86937 0.0976,0.0568 -0.22541,-0.081 -0.29155,-0.17248 -0.0271,-0.0376 -0.0216,-0.0901 -0.0324,-0.13515 -0.35368,-0.14718 -0.16625,0.004 -0.29112,-0.35927 -0.0479,-0.0767 -0.14434,-0.32292 -0.21949,-0.35922 -0.0281,-0.0136 -0.0644,0.0433 -0.09,0.0255 -0.0242,-0.0169 -2.6e-4,-0.059 -5.3e-4,-0.0885 8e-4,-0.18926 0.002,-0.37853 0.004,-0.56777 -0.005,-0.27181 -0.006,-0.54399 -0.0419,-0.81401 -0.063,-0.58926 -0.18511,-1.16382 -0.30207,-1.74456 -0.12701,-0.76329 -0.0813,-1.545 -0.20864,-2.31033 -0.0812,-0.39618 -0.25628,-0.74229 -0.17979,-1.16298 0.003,-0.34086 0.004,-0.68254 -0.0555,-1.01958 -0.0848,-0.58316 -0.24222,-1.15406 -0.37906,-1.72655 -0.0502,-0.66101 -0.16973,-1.30647 -0.30475,-1.95437 -7.9e-4,-0.72123 -0.002,-1.4424 0.002,-2.16363 0.002,-0.59511 0.006,-1.19024 10e-4,-1.78535 0.002,-0.53754 0.008,-1.07514 0.002,-1.61267 -0.002,-0.62676 -0.004,-1.25351 -0.003,-1.88029 0.007,-0.57242 0.002,-1.14479 0.002,-1.71724 0.007,-0.50823 0.003,-1.01654 0.002,-1.5248 0.002,-0.50466 -5.3e-4,-1.0093 0.004,-1.51396 -0.002,-0.42653 0.004,-0.85306 0.002,-1.2796 0.004,-0.3737 0.006,-0.7474 5.3e-4,-1.1211 -0.0137,-0.32168 -0.0206,-0.64528 -0.12618,-0.95311 -1.00291,-1.36648 -0.87507,-1.65195 -3.80892,-2.67377 -0.29598,-0.16235 -0.58477,-0.27418 -0.9173,-0.34477 -0.43476,-0.178 -0.86536,-0.35115 -1.31391,-0.49216 -0.33056,-0.13614 -0.69905,-0.17029 -1.00393,-0.37553 -0.26882,-0.14358 -0.58656,-0.18519 -0.85165,-0.34965 -0.37766,-0.11787 -0.78578,-0.11967 -1.16099,-0.25649 -0.41801,-0.11564 -0.83385,-0.14174 -1.26659,-0.14028 -0.31269,-0.0274 -0.63179,-0.054 -0.91868,-0.19291 -0.25272,-0.11639 -0.43882,-0.21234 -0.72687,-0.15799 -0.22464,0.001 -0.44928,0.001 -0.6739,0.004 -0.18664,0.001 -0.37899,0.008 -0.55982,-0.0438 -0.0946,-0.0285 -0.35875,-0.16417 -0.27353,-0.11419 5.68683,3.3352 4.17261,2.53047 3.05857,1.77151 -0.27624,-0.20444 -0.36177,-0.60338 -0.69928,-0.76428 -0.19153,-0.15006 -0.26832,-0.43492 -0.49929,-0.57203 -0.17944,-0.21377 -0.24815,-0.20631 -0.2152,-0.51768 0.003,-0.26855 -0.002,-0.53717 -0.003,-0.80572 9e-5,-0.46269 -0.0108,-0.92539 -0.007,-1.38811 -0.001,-0.58562 -0.003,-1.17124 0.002,-1.75686 0.007,-0.31692 0.01,-0.63373 0.0108,-0.95069 2e-4,-0.18677 2.2e-4,-0.37355 0.002,-0.56031 -0.002,-0.19591 0.003,-0.39169 0.002,-0.58758 -2.4e-4,-0.28189 0.007,-0.56853 -0.051,-0.8456 -0.0852,-0.3615 -0.18429,-0.66152 -0.53286,-0.84542 -1.82563,-1.0718 -2.62122,-2.19779 -4.37635,-2.17084 -0.31283,8e-4 -0.62567,-7.9e-4 -0.93849,-0.002 -0.25889,5.3e-4 -0.51777,0.002 -0.77667,0.002 -0.35294,0.003 -0.70585,-0.002 -1.05878,0.003 -0.46381,-7.9e-4 -0.9276,2.7e-4 -1.39139,0.004 -0.62729,-7.9e-4 -1.25457,0.002 -1.88184,-0.002 -0.56949,0.003 -1.139,5e-5 -1.70848,0.003 -0.40904,5.3e-4 -0.81806,0.003 -1.22708,0.006 -1.35323,-0.0249 -3.70593,-2.15888 2.75872,1.79406 -0.25369,0.0261 -0.37529,-0.41602 -0.53524,-0.57884 -0.12466,-0.28997 -0.32303,-0.49157 -0.41102,-0.7899 -0.0915,-0.19651 -0.14683,-0.0926 -0.26032,-0.22156 -0.0602,-0.0684 -0.0374,-0.18137 -0.0825,-0.2605 -0.0169,-0.0296 -0.0506,-0.0456 -0.0759,-0.0684 -0.23075,-0.22158 -0.18553,-0.37155 -0.29578,-0.67075 -0.2011,-0.26129 -0.24425,-0.48216 -0.20857,-0.81436 -0.009,-0.3573 -0.0241,-0.71611 -0.0887,-1.06843 -0.0881,-0.50431 -0.294,-0.9907 -0.28534,-1.50615 -0.012,-0.61828 -0.009,-1.23883 -0.0877,-1.85339 -0.0869,-0.58064 -0.23036,-1.15848 -0.26983,-1.74 0.002,-0.46427 0.002,-0.92853 0.001,-1.3928 -0.005,-0.46151 -0.0216,-0.92423 -0.0823,-1.38214 -0.0775,-0.38945 -0.22235,-0.7594 -0.27942,-1.14158 0.003,-0.28742 0.006,-0.57481 0.006,-0.86223 0.004,-0.20914 0.005,-0.41845 1.6e-4,-0.62757 -0.007,-0.30283 -0.0164,-0.60873 -0.0872,-0.90466 -0.0996,-0.44805 -0.28351,-0.88862 -0.28307,-1.34771 0.003,-0.44922 0.008,-0.89836 0.0125,-1.34755 0.004,-0.35957 -0.004,-0.72723 -0.12274,-1.07059 -0.20002,-0.54048 -0.59318,-0.9839 -1.00267,-1.3798 -0.48077,-0.48147 -1.04958,-0.86496 -1.45775,-1.41666 -1.42291,-1.31321 -3.13626,-2.48632 -5.03282,-2.89704 -0.71569,-0.0482 -1.43385,-0.005 -2.15048,0.001 -1.00175,0.0324 -2.00855,0.0611 -2.9952,0.25486 -0.84052,0.18469 -1.67615,0.39064 -2.51651,0.57634 -1.09325,0.22702 -2.19479,0.41281 -3.27675,0.69474 -0.87493,0.20376 -1.75747,0.36455 -2.63589,0.54981 -0.68612,0.19597 -1.37164,0.39918 -2.04322,0.64044 -0.86288,0.27829 -1.74925,0.48184 -2.61004,0.76865 -1.0393,0.31162 -2.08726,0.59577 -3.1355,0.87583 -0.78239,0.20349 -1.55522,0.43667 -2.31862,0.70325 -0.4609,0.14372 -0.92808,0.27463 -1.38998,0.40872 -0.41217,0.0753 -0.80498,0.20997 -1.20091,0.34494 -0.65401,0.12657 -1.31815,0.20296 -1.97658,0.30253 -0.81212,0.0532 -1.62715,0.012 -2.44062,0.0238 -0.68803,-0.005 -1.37629,-0.005 -2.06377,0.0277 -0.64668,0.0399 -1.29017,0.11247 -1.91577,0.28986 -0.8333,0.18812 -1.69211,0.22408 -2.52786,0.40495 -0.91145,0.17902 -1.83239,0.28827 -2.747164,0.44791 -0.705519,0.09 -1.393521,0.248 -2.087586,0.39811 -0.613008,0.0998 -1.217668,0.24441 -1.834076,0.32243 -0.546685,0.10226 -1.069732,0.28678 -1.614567,0.39709 -1.000458,0.15953 -1.987298,0.38779 -2.931215,0.76341 -0.832178,0.30413 -1.662417,0.6126 -2.499972,0.90164 -0.663104,0.25569 -1.326599,0.51273 -2.024335,0.66013 -0.494035,0.15597 -0.989925,0.30686 -1.478592,0.47803 -0.49294,0.18239 -1.020254,0.28312 -1.54069,0.3447 -0.476834,0.0214 -0.951857,0.068 -1.409877,0.21165 -0.644517,0.19885 -1.289108,0.4041 -1.9221,0.6352 -0.548346,0.22033 -1.106268,0.41613 -1.647391,0.65387 -0.579337,0.26399 -1.19425,0.44257 -1.785588,0.67734 -0.654161,0.18237 -1.312781,0.35079 -1.978247,0.48689 -0.723043,0.13131 -1.419323,0.35055 -2.106055,0.61156 -0.796694,0.35744 -1.548447,0.80975 -2.308058,1.2385 -0.848259,0.48466 -1.647306,1.04816 -2.497875,1.52942 -1.333223,0.75368 -2.676242,1.49674 -3.933934,2.37386 -1.207603,0.85586 -2.363724,1.77905 -3.413072,2.82625 -1.330595,1.30681 -2.561926,2.70896 -3.789566,4.11194 -1.285063,1.4633 -2.548734,2.94407 -3.72523,4.49738 -1.222301,1.6967 -2.419766,3.41302 -3.447368,5.23719 -0.780917,1.46283 -1.612611,2.90965 -2.270088,4.43116 -0.487164,1.16538 -0.913079,2.35142 -1.292582,3.55596 -0.407265,1.24798 -0.726527,2.51606 -0.990004,3.80257 -0.388686,1.71805 -0.642832,3.47422 -0.717376,5.23478 5.29e-4,2.09589 0.01267,4.1918 0.0024,6.28768 -0.01156,1.54794 -0.03854,3.0968 0.0232,4.64408 0.07385,1.04071 0.227958,2.07091 0.458939,3.08882 0.23014,1.58019 0.530944,3.14933 0.745178,4.73207 0.375245,2.05106 0.762788,4.10625 1.414152,6.09131 0.477203,1.61141 0.969489,3.22227 1.553052,4.79864 0.389789,1.11834 0.962305,2.16372 1.34607,3.28538 0.350258,0.9055 0.646171,1.84281 1.152131,2.67748 0.341378,0.69442 0.68566,1.39626 1.165352,2.00789 0.474998,0.66577 0.949878,1.34095 1.496242,1.9496 0.725107,0.77623 1.466533,1.53415 2.206739,2.29481 1.015331,1.10203 2.04933,2.18091 3.169608,3.17837 0.881494,0.90338 1.829374,1.71653 2.859468,2.44808 1.868088,1.3478 3.901028,2.46287 5.971514,3.46796 0.798798,0.39008 1.62443,0.71861 2.471835,0.98849 1.082585,0.35143 2.153931,0.73715 3.238844,1.08189 1.005713,0.30162 2.031021,0.54547 3.055297,0.77407 0.911059,0.15416 1.826054,0.30478 2.745806,0.39246 0.943544,0.0978 1.884395,0.26785 2.83577,0.24547 0.976762,0.002 1.953538,-2.6e-4 2.930292,-0.004 1.178436,-0.004 2.35716,-0.01 3.53541,0.0142 z" />
    <path
       style="fill:#000000;stroke-width:0.264583"
       id="path11"
       d="m 87.761047,218.99208 c 1.293768,-0.0172 2.587718,-0.0245 3.881596,-0.0283 1.66443,0.0391 3.337486,-0.0824 4.9975,0.0641 1.205371,0.14732 2.416498,0.22799 3.629267,0.27872 0.96147,0.0326 1.92372,0.0395 2.88568,0.0456 0.56864,0.002 1.13728,0.004 1.70593,0.004 0.39796,0.001 0.79594,0.003 1.1939,0.002 0.37355,-0.002 0.74709,0.002 1.12064,5.3e-4 0.43427,-0.002 0.86855,-0.002 1.30282,-0.002 0.51452,2.6e-4 1.02903,-0.001 1.54354,-0.003 0.58496,0.003 1.16993,-1e-4 1.7549,-0.001 0.55077,0.002 1.10155,0.004 1.65233,0.003 0.53927,0.001 1.07855,-0.002 1.61781,1.9e-4 0.47285,0.003 0.94568,2.6e-4 1.41852,8e-4 0.47974,-2.7e-4 0.95948,0.001 1.43922,5.3e-4 0.60797,-0.0142 1.21741,0.0401 1.81728,-0.0685 0.63705,-0.13379 1.27963,-0.22678 1.9289,-0.26941 0.51018,-0.0283 1.02138,-0.0296 1.53218,-0.0268 0.4404,0.0625 0.80111,-0.0677 1.2059,-0.21443 0.35582,-0.10992 0.72563,-0.13017 1.09503,-0.14144 0.44141,-0.009 0.88296,-0.009 1.32442,-0.005 0.50863,-0.001 1.01726,-7.9e-4 1.52589,-5.3e-4 0.47013,-0.0238 0.95805,0.0736 1.40935,-0.0741 0.50084,-0.15217 1.01738,-0.22293 1.53766,-0.2626 0.44913,0.0386 0.83452,-0.1835 1.25819,-0.28807 0.44707,-0.0699 0.86009,-0.25444 1.30286,-0.35339 0.49506,-0.26849 1.05347,-0.32445 1.57938,-0.4925 0.70001,-0.13434 1.34143,-0.43552 2.00088,-0.69153 0.73157,-0.21915 1.41166,-0.58934 2.07716,-0.95886 0.58133,-0.27315 1.13394,-0.59617 1.68916,-0.91536 0.46552,-0.25633 0.89965,-0.56937 1.37949,-0.80018 0.40295,-0.11094 0.73699,-0.35502 1.11977,-0.51378 0.35756,-0.0502 0.6602,-0.24456 1.00153,-0.35599 0.41152,-0.11342 0.79071,-0.30733 1.21547,-0.38913 0.48415,0.002 0.92217,-0.15046 1.3826,-0.27392 0.59537,-0.14986 1.17195,-0.37404 1.75692,-0.56593 0.83426,-0.20762 1.6311,-0.53196 2.45482,-0.77376 0.85828,-0.34744 1.76278,-0.55321 2.6475,-0.81833 1.11728,-0.26211 2.24436,-0.49545 3.37559,-0.69225 1.01562,-0.15004 2.01741,-0.37057 3.03812,-0.48874 0.93225,-0.13658 1.87693,-0.24259 2.8025,-0.42574 1.11657,-0.23504 2.2529,-0.31332 3.39006,-0.35984 1.72486,-0.0644 3.44367,-0.24921 5.15921,-0.43546 1.72003,-0.2645 3.44314,-0.49538 5.17977,-0.61244 1.21416,-0.002 2.41308,-0.1806 3.61756,-0.30838 0.84895,-0.0898 1.70274,-0.10585 2.55553,-0.11849 0.81736,-0.003 1.63472,-0.001 2.45207,0.002 0.74187,0.002 1.48374,0.003 2.2256,2.7e-4 0.86818,-0.001 1.73635,-0.003 2.60453,-0.001 0.59966,0.006 1.19936,0.005 1.79902,0.009 0.30674,-2.6e-4 0.61352,0.007 0.92025,0.005 0.15525,0.23341 0.48043,0.2889 0.7403,0.33645 0.3877,0.0199 0.77604,0.0257 1.16424,0.0253 0.2262,0.0387 0.66289,-0.11408 0.77876,0.1082 0,0 -3.1272,-2.46665 -3.1272,-2.46665 v 0 c -0.28459,0.0395 -0.57315,0.0165 -0.85992,0.0222 -0.37244,-0.008 -0.75476,-0.002 -1.11475,-0.10904 -0.26479,-0.0914 -0.51434,-0.29726 -0.80284,-0.25706 -0.30178,-0.002 -0.60361,0.006 -0.9054,0.005 -0.59157,0.004 -1.18317,0.003 -1.77473,0.009 -0.86962,10e-4 -1.73922,-5.3e-4 -2.60883,-0.002 -0.74302,-0.003 -1.48604,-0.003 -2.22906,-0.003 -0.8143,0.001 -1.62865,-10e-4 -2.44289,0.012 -0.86034,0.0107 -1.72056,0.0428 -2.57493,0.15245 -1.19054,0.14326 -2.37955,0.28754 -3.57999,0.31725 -1.72759,0.14461 -3.43822,0.40771 -5.15495,0.64471 -1.72613,0.18024 -3.45607,0.34252 -5.1921,0.38343 -1.15255,0.0596 -2.30044,0.15696 -3.43258,0.39308 -0.93079,0.1512 -1.86542,0.28541 -2.80097,0.40288 -1.01646,0.14503 -2.01924,0.36698 -3.0353,0.51534 -1.13747,0.21564 -2.27625,0.43723 -3.39762,0.72509 -0.89603,0.24843 -1.7982,0.47673 -2.66683,0.81324 -0.82119,0.2631 -1.63336,0.55316 -2.46751,0.77512 -0.58264,0.19357 -1.1647,0.39419 -1.76144,0.53892 -0.45509,0.12875 -0.91492,0.179 -1.37951,0.26175 -0.42105,0.12251 -0.82027,0.30362 -1.24321,0.4202 -0.34045,0.13189 -0.67383,0.27359 -1.02218,0.38317 -0.37085,0.1848 -0.73106,0.38456 -1.1165,0.53909 -0.47089,0.26001 -0.92725,0.54596 -1.39117,0.81826 -0.54369,0.32752 -1.10442,0.62505 -1.67179,0.90964 -0.66326,0.34928 -1.32232,0.71072 -2.0463,0.9217 -0.65043,0.25836 -1.3016,0.50424 -1.98794,0.65249 -0.53843,0.12959 -1.06253,0.28356 -1.58098,0.4783 -0.43818,0.12217 -0.87059,0.2612 -1.31524,0.35865 -0.3992,0.12609 -0.78655,0.23946 -1.21124,0.23495 -0.52966,0.0631 -1.04967,0.1693 -1.56805,0.29404 -0.45095,0.0269 -0.90348,0.002 -1.35499,0.0119 -0.51093,-5.3e-4 -1.02186,-10e-4 -1.5328,-0.005 -0.44532,0.002 -0.89115,-0.002 -1.33593,0.0233 -0.39631,0.0293 -0.78763,0.0914 -1.16235,0.22968 -0.37154,0.12129 -0.73723,0.12688 -1.12723,0.1106 -0.51311,0.007 -1.02699,0.0122 -1.53836,0.0596 -0.65044,0.0619 -1.2902,0.1853 -1.93515,0.28721 -0.59967,0.0411 -1.20093,0.0138 -1.80171,0.0182 -0.47931,-5.3e-4 -0.95862,8e-4 -1.43794,5.3e-4 -0.47216,5.3e-4 -0.94432,-0.002 -1.41649,8e-4 -0.53908,0.002 -1.07818,-10e-4 -1.61726,1.9e-4 -0.54836,-10e-4 -1.09671,0.001 -1.64506,0.003 -0.58608,-0.001 -1.17218,-0.004 -1.75826,-0.001 -0.51728,-0.002 -1.03455,-0.003 -1.55183,-0.003 -0.43645,-7.9e-4 -0.8729,-7e-5 -1.30935,-0.002 -0.37299,-0.001 -0.74597,0.003 -1.11896,7.9e-4 -0.39593,-0.001 -0.79186,0.001 -1.18778,0.003 -0.56297,10e-4 -1.12594,0.006 -1.688908,0.007 -0.950725,0.002 -1.901616,-7.9e-4 -2.851711,-0.0408 -1.207566,-0.0547 -2.410521,-0.16046 -3.613446,-0.2779 -1.659676,-0.0727 -3.323325,0.009 -4.984168,-0.0226 -1.319802,-0.004 -2.639671,-0.0113 -3.959368,-0.0282 z" />
  </g>
</svg>
