<?xml version="1.0" encoding="UTF-8" standalone="no"?>
<!-- Created with Inkscape (http://www.inkscape.org/) -->

<svg
   width="54.659939mm"
   height="128.9594mm"
   viewBox="0 0 54.659939 128.9594"
   version="1.1"
   id="svg1"
   xmlns:inkscape="http://www.inkscape.org/namespaces/inkscape"
   xmlns:sodipodi="http://sodipodi.sourceforge.net/DTD/sodipodi-0.dtd"
   xmlns="http://www.w3.org/2000/svg"
   xmlns:svg="http://www.w3.org/2000/svg">
  <sodipodi:namedview
     id="namedview1"
     pagecolor="#ffffff"
     bordercolor="#000000"
     borderopacity="0.25"
     inkscape:showpageshadow="2"
     inkscape:pageopacity="0.0"
     inkscape:pagecheckerboard="0"
     inkscape:deskcolor="#d1d1d1"
     inkscape:document-units="mm">
    <inkscape:page
       x="0"
       y="0"
       width="54.659939"
       height="128.9594"
       id="page2"
       margin="0"
       bleed="0" />
  </sodipodi:namedview>
  <defs
     id="defs1" />
  <g
     inkscape:label="Layer 1"
     inkscape:groupmode="layer"
     id="layer1"
     transform="translate(-57.661861,-113.3433)">
    <path
       style="fill:#000000;stroke-width:0.264583"
       id="path1"
       d="m 73.164382,214.07376 c -0.01725,-0.19021 -0.02098,-0.38213 -0.05176,-0.57062 -0.09489,-0.58125 -0.385103,-1.79683 -0.509042,-2.31799 -0.401164,-1.68691 -0.831437,-3.36463 -1.278139,-5.03998 -1.076242,-4.14 -2.241737,-8.25484 -3.515706,-12.33825 -1.105802,-3.55569 -2.125713,-7.13737 -3.247819,-10.68795 -0.650242,-1.91427 -1.196398,-3.86174 -1.853258,-5.77381 -0.277706,-0.90429 -0.644295,-1.77878 -0.934744,-2.67825 -0.113307,-0.35977 -0.171913,-0.72951 -0.199257,-1.10435 0.01839,-0.30443 -0.02154,-0.57459 -0.13249,-0.85733 -0.164227,-0.37152 -0.1948,-0.78152 -0.217046,-1.18206 -0.02064,-0.44297 -0.0181,-0.88658 -0.01897,-1.3299 0.0024,-0.3573 0.0039,-0.71458 0.0068,-1.07186 0.0046,-0.30764 -0.0024,-0.61529 -0.0019,-0.92293 -0.0056,-0.50994 -0.0051,-1.01987 -0.0052,-1.52982 -0.05256,-0.43359 0.0823,-0.82088 0.197533,-1.22907 0.105026,-0.34383 0.125672,-0.69789 0.236656,-1.03944 0.120219,-0.39891 0.25458,-0.79005 0.402836,-1.17973 0.221211,-0.64393 0.513594,-1.26326 0.777841,-1.89237 0.441521,-0.93664 0.846108,-1.89068 1.246653,-2.84557 0.393761,-0.96765 0.764363,-1.9441 1.137327,-2.92012 0.330986,-0.96777 0.757452,-1.89761 1.14481,-2.84261 0.440373,-1.03588 0.84178,-2.08917 1.232599,-3.14497 0.540882,-1.33032 1.18859,-2.61373 1.826741,-3.89916 1.067742,-2.00863 2.198013,-3.98075 3.372001,-5.92875 0.782339,-1.38044 1.60107,-2.73639 2.468012,-4.0648 0.667592,-1.03534 1.426972,-2.00728 2.091926,-3.04371 0.626705,-0.91191 1.148889,-1.88713 1.769842,-2.80216 0.624597,-0.86541 1.23725,-1.73641 1.92305,-2.55505 0.298826,-0.41185 0.687361,-0.72885 1.05074,-1.07202 0.350457,-0.36359 0.738185,-0.68729 1.12517,-1.01181 0.339725,-0.36499 0.739645,-0.66935 1.125588,-0.98398 0.330483,-0.20098 0.638979,-0.44301 0.984123,-0.62577 0.487121,-0.38435 1.026763,-0.694 1.556961,-1.01481 1.015855,-0.58346 2.106774,-1.01066 3.168306,-1.49982 1.031129,-0.43333 2.086946,-0.79603 3.144843,-1.15722 1.434113,-0.428 2.869594,-0.84792 4.31237,-1.24647 2.175721,-0.61651 4.376681,-1.12523 6.581401,-1.6235 1.56538,-0.27328 3.11842,-0.61773 4.69157,-0.84574 0.64432,-0.0931 1.2938,-0.14212 1.94457,-0.14659 0.0583,2.3e-4 0.11911,-0.0164 0.17481,8e-4 0.0905,0.0278 0.30181,0.22681 0.21958,0.17996 -7.6401,-4.35276 -3.78724,-2.78089 -3.14891,-1.72292 0.12506,0.49303 0.1014,1.01414 0.0997,1.51947 -0.0677,0.8236 -0.28977,1.61491 -0.52884,2.40173 -0.23282,0.82548 -0.56339,1.61435 -0.95234,2.37699 -0.264,0.49647 -0.60948,0.94008 -0.83797,1.45521 -0.11624,0.33623 -0.21801,0.66758 -0.36177,0.99364 -0.0883,0.27664 -0.20079,0.52339 -0.34298,0.77588 -0.0959,0.2235 -0.23546,0.40895 -0.35845,0.61523 -0.27778,0.2455 -0.50629,0.53182 -0.78351,0.77837 -0.31964,0.24099 -0.57281,0.56268 -0.91117,0.77679 -0.33376,0.20787 -0.64151,0.42515 -1.03066,0.51247 -0.17737,0.0977 -0.4201,-1.1e-4 -0.59877,0.0628 -0.10786,0.0379 -0.19538,0.11937 -0.29775,0.1703 -0.2522,0.11528 -0.46161,0.19304 -0.66563,0.37975 -0.459877,0.18563 -0.739853,0.62625 -1.055319,0.98921 -0.674068,0.76287 -1.33365,1.53629 -2.003224,2.30268 -0.467513,0.49359 -0.931814,0.98827 -1.399428,1.48029 -0.32815,0.33947 -0.67885,0.65659 -1.006319,0.99839 -0.39955,0.38789 -0.834221,0.73626 -1.255829,1.10092 -0.43838,0.3074 -0.817838,0.6758 -1.188421,1.0624 -0.437753,0.41989 -0.825233,0.87752 -1.197653,1.35481 -0.516514,0.72109 -1.071366,1.41028 -1.552985,2.15678 -0.341733,0.50552 -0.671832,1.02237 -0.943152,1.56962 -0.303998,0.59658 -0.567804,1.21125 -0.909045,1.7882 -0.512445,0.85992 -0.860943,1.8008 -1.297744,2.69855 -0.558644,0.99512 -1.13348,1.98078 -1.640742,3.00346 -0.502055,0.9128 -0.922914,1.86664 -1.337069,2.82154 -0.33687,0.70732 -0.626642,1.42873 -0.871297,2.17295 -0.339921,0.75467 -0.50686,1.55931 -0.707207,2.3561 -0.204878,0.92133 -0.372597,1.8515 -0.531358,2.782 -0.14428,0.99648 -0.374658,1.97619 -0.494773,2.97637 -0.109548,0.92665 -0.110781,1.86195 -0.121701,2.79379 -0.0032,0.92934 -7.93e-4,1.85868 5.3e-4,2.78802 0.07117,0.9141 0.309501,1.81894 0.571751,2.69669 0.157922,0.55255 0.462878,1.03675 0.747189,1.52968 0.313708,0.6225 0.741314,1.1721 1.137906,1.74158 0.463228,0.59897 0.998797,1.13924 1.553925,1.65284 0.586184,0.57017 1.156702,1.14874 1.677183,1.77996 0.677217,0.89676 1.397629,1.75787 2.150739,2.59143 0.568122,0.68176 1.180135,1.32468 1.781654,1.97669 0.413335,0.4469 0.835711,0.88636 1.2407,1.34055 0.282266,0.37038 0.625954,0.67982 0.955379,1.00624 1.344613,1.17136 2.881199,1.84333 4.481674,2.75343 0.388387,0.18011 0.583941,-0.0449 0.788604,-0.36935 0.214275,-0.48519 0.171823,-1.02496 0.232918,-1.54026 0.143848,-0.61092 0.229132,-1.22998 0.288795,-1.85393 0.09279,-0.48983 0.228875,-0.96957 0.334158,-1.45696 0.07536,-0.43029 0.07258,-0.86952 0.08069,-1.30497 0.0059,-0.3397 0.0048,-0.67955 0.0019,-1.01929 0.0117,-0.55152 0.140565,-1.10577 0.270693,-1.64138 0.208229,-0.92779 0.436734,-1.84945 0.593923,-2.78768 0.185505,-0.81704 0.380195,-1.6324 0.582995,-2.44554 0.20971,-0.77141 0.52985,-1.49571 0.90559,-2.19766 0.26465,-0.56885 0.62013,-0.99156 1.19547,-1.2459 0.76063,-0.23472 1.57144,-0.21251 2.35947,-0.22544 1.07144,-0.005 2.14293,-0.001 3.21436,0.004 0.86236,0.005 1.72472,0.009 2.58709,0.0102 0.28909,-0.003 0.55148,-0.0218 0.82497,0.0771 0.0652,0.0236 0.25299,0.11293 0.19273,0.0786 -4.30593,-2.4563 -4.29068,-2.44895 -3.13243,-1.75133 0.31374,0.276 0.27148,0.77592 0.28513,1.16062 0.0103,0.64644 0.004,1.29302 0.002,1.93951 -0.005,0.72677 -0.004,1.45366 -3e-5,2.18045 0.004,0.99073 0.005,1.98144 0.008,2.97218 -0.0899,1.09572 -0.22801,2.18416 -0.28739,3.28253 -0.0627,1.43437 -0.22457,2.86187 -0.32235,4.2941 -0.0585,1.89258 -0.31772,3.77078 -0.49817,5.65375 -0.24767,2.39576 -0.60964,4.77912 -1.04642,7.14732 -0.32595,1.64897 -0.74972,3.28014 -1.31794,4.86252 -0.41755,1.25239 -1.18766,2.31169 -1.90614,3.39974 -0.66776,0.99664 -1.5014,1.87596 -2.35972,2.71034 -0.69699,0.60598 -1.295427,1.3113 -1.957745,1.9515 -0.494647,0.53303 -0.929246,1.11762 -1.408859,1.66256 -0.4192,0.54197 -0.797282,1.13187 -1.009999,1.78565 -0.27559,0.64353 -0.420926,1.32592 -0.511392,2.01698 -0.170712,0.84844 -0.287906,1.70201 -0.359354,2.56422 -0.05671,0.80927 -0.06487,1.62086 -0.07831,2.4317 -0.0049,0.48082 -0.0083,0.96162 -0.0048,1.44245 0.007,0.50557 0.0013,1.01117 0.0013,1.51675 -0.0024,0.3531 -0.0029,0.70619 -0.0052,1.05929 -0.004,0.30595 0.0029,0.6119 0.0024,0.91785 -0.0011,0.41062 0.0019,0.82124 0.003,1.23187 -0.0043,0.36826 -0.0052,0.73649 -0.0019,1.10476 -5.29e-4,0.50295 0.0045,1.00589 0.0067,1.50883 5.29e-4,0.54074 -0.0011,1.08153 -0.0061,1.62225 0.0029,0.41126 -0.0032,0.82245 -2.65e-4,1.2337 -0.0032,0.37607 -0.0019,0.75215 -1.37e-4,1.12824 -2.65e-4,0.43228 4.7e-5,0.86458 0.0024,1.29687 -5.29e-4,0.47924 -0.0013,0.95849 5.29e-4,1.43774 0.0055,0.58308 0.0013,1.16615 0.0021,1.74923 -0.0038,0.49051 -5.3e-4,0.98102 -0.0047,1.47152 -0.0016,0.38687 2.4e-5,0.77376 -0.0024,1.16062 -2.64e-4,0.30894 2.65e-4,0.61793 -0.0035,0.92685 4.5e-5,0.2465 0.0019,0.49302 -7.94e-4,0.73952 0.03078,0.064 -0.05524,0.66092 0.02669,0.42664 -0.09638,-0.043 0.06609,-0.0108 -0.06752,-0.0302 0,0 3.30404,2.23859 3.30404,2.23859 v 0 c 0.115557,-0.0702 0.05606,-0.027 0.174032,-0.13554 0.147984,-0.22593 0.119875,-0.42133 0.113395,-0.6904 -0.0024,-0.24676 -7.93e-4,-0.49354 -7.93e-4,-0.74031 -0.0038,-0.3101 -0.0031,-0.62026 -0.0035,-0.93038 -0.0024,-0.38766 -7.94e-4,-0.77534 -0.0024,-1.16301 -0.004,-0.49209 -0.0011,-0.9842 -0.0047,-1.4763 7.94e-4,-0.58236 -0.0034,-1.16471 0.0021,-1.74707 0.0021,-0.47904 0.0011,-0.95808 5.29e-4,-1.43712 0.0024,-0.43145 0.0028,-0.86291 0.0024,-1.29436 0.0019,-0.37612 0.0031,-0.75225 -1.37e-4,-1.12838 0.0029,-0.41136 -0.0032,-0.82267 -2.65e-4,-1.23404 -0.0051,-0.5428 -0.0066,-1.08567 -0.0061,-1.62848 0.0021,-0.50068 0.0072,-1.00136 0.0067,-1.50204 0.0034,-0.36891 0.0024,-0.73779 -0.0019,-1.1067 0.0011,-0.40959 0.004,-0.81917 0.003,-1.22875 -5.29e-4,-0.30513 0.0065,-0.61024 0.0024,-0.91536 -0.0024,-0.35493 -0.0029,-0.70985 -0.0053,-1.06478 -5e-6,-0.50573 -0.0062,-1.01145 -7.93e-4,-1.51717 0.0016,-0.48204 -0.0059,-0.96398 -0.0081,-1.446 -0.0054,-0.80507 7.94e-4,-1.61077 0.04897,-2.41464 0.06171,-0.85585 0.166704,-1.70566 0.366004,-2.54173 0.07375,-0.67058 0.199705,-1.33252 0.477124,-1.95244 0.18344,-0.60683 0.54158,-1.1485 0.92507,-1.64861 0.46432,-0.54614 0.91107,-1.10708 1.39559,-1.63643 0.64084,-0.65787 1.24395,-1.35264 1.93168,-1.96434 0.86712,-0.86263 1.7157,-1.76469 2.39369,-2.7858 0.73628,-1.11377 1.51204,-2.20704 1.94531,-3.48563 0.57241,-1.60921 0.96788,-3.27118 1.2973,-4.94594 0.42444,-2.38027 0.77224,-4.77481 1.06052,-7.17521 0.19004,-1.87937 0.47693,-3.7507 0.5529,-5.63989 0.0879,-1.43266 0.25134,-2.85852 0.33734,-4.29025 0.0637,-1.10324 0.19135,-2.19886 0.30603,-3.29758 0.002,-0.98807 0.004,-1.97609 0.008,-2.96415 0.005,-0.72497 0.006,-1.45 0.007,-2.17497 0.003,-0.64747 0.0101,-1.2949 0.0136,-1.94237 -0.003,-0.48021 0.001,-0.97594 -0.14316,-1.43807 -1.13121,-1.58863 -2.96662,-2.30645 -4.75525,-2.23922 -0.85666,5.3e-4 -1.71333,0.001 -2.56999,0.001 -1.07348,-0.001 -2.14699,-0.0125 -3.22042,0.002 -0.83718,0.0168 -1.70389,0.007 -2.483011,0.35682 -0.600538,0.34103 -1.037569,0.81796 -1.318421,1.45481 -0.383763,0.73328 -0.714447,1.48726 -0.944407,2.28494 -0.207846,0.82437 -0.402815,1.65102 -0.586269,2.48147 -0.146169,0.92681 -0.381135,1.83172 -0.597522,2.74375 -0.155069,0.55909 -0.275449,1.14753 -0.339135,1.72076 -0.0013,0.33909 0.0013,0.6782 0.004,1.01728 5.29e-4,0.41302 0.0013,0.82815 -0.05011,1.23859 -0.08802,0.507 -0.219138,1.00296 -0.340923,1.50262 -0.04328,0.61831 -0.123248,1.23125 -0.271352,1.8342 -0.08034,0.45862 -0.05074,0.9294 -0.175111,1.3796 -0.119415,0.1785 -0.293042,-0.0479 -0.460182,-0.10222 5.90328,3.40676 3.52907,2.19509 2.299417,1.21419 -0.364718,-0.26976 -0.663586,-0.61791 -0.972736,-0.94534 -0.387172,-0.48296 -0.838652,-0.9115 -1.263917,-1.36166 -0.582472,-0.67726 -1.238435,-1.28706 -1.794494,-1.98772 -0.759298,-0.82029 -1.495777,-1.6622 -2.159016,-2.56321 -0.496067,-0.66186 -1.054084,-1.24816 -1.636067,-1.83159 -0.552397,-0.50407 -1.082545,-1.01987 -1.585909,-1.57298 -0.391896,-0.55938 -0.811435,-1.09914 -1.147334,-1.69529 -0.24982,-0.49947 -0.588709,-0.94694 -0.785347,-1.47281 -0.307496,-0.82932 -0.496245,-1.71821 -0.637305,-2.58819 -0.0013,-0.92806 -0.0047,-1.85613 -7.93e-4,-2.78418 0.0035,-0.91991 0.009,-1.84142 0.09861,-2.75786 0.112009,-0.99609 0.331023,-1.97132 0.480351,-2.96127 0.152868,-0.91877 0.338828,-1.83238 0.531971,-2.74303 0.209095,-0.7855 0.335524,-1.59436 0.69188,-2.33583 0.240475,-0.73368 0.536887,-1.44124 0.846326,-2.14763 0.401619,-0.95236 0.82293,-1.89814 1.319157,-2.80568 0.510391,-1.0221 1.06695,-2.01837 1.636035,-3.00879 0.437253,-0.88496 0.798515,-1.80749 1.304845,-2.65703 0.35188,-0.58351 0.627978,-1.20403 0.941986,-1.80779 0.257744,-0.53755 0.582631,-1.04176 0.906409,-1.54125 0.458674,-0.74503 1.015519,-1.41429 1.529583,-2.11994 0.374401,-0.45935 0.774136,-0.89235 1.191958,-1.31271 0.3673,-0.37169 0.751359,-0.71587 1.167085,-1.03247 0.435081,-0.36615 0.869673,-0.73135 1.27689,-1.1285 0.33755,-0.33325 0.689806,-0.65264 1.009166,-1.00326 0.474506,-0.4931 0.916952,-1.01264 1.386142,-1.5113 0.66126,-0.77195 1.31336,-1.55148 2.00891,-2.29304 0.32211,-0.35414 0.62761,-0.69452 1.05625,-0.91699 0.18069,-0.12732 0.41499,-0.17787 0.60555,-0.29461 0.27052,-0.11212 0.59035,-0.0653 0.86335,-0.19515 0.3952,-0.15355 0.7468,-0.38135 1.09727,-0.61795 0.32824,-0.25421 0.62214,-0.54981 0.93771,-0.81961 0.29366,-0.27896 0.57704,-0.56984 0.84994,-0.86802 0.13145,-0.20846 0.27338,-0.3987 0.36515,-0.62911 0.14673,-0.26548 0.28469,-0.51624 0.35951,-0.81158 0.14162,-0.32995 0.27137,-0.64949 0.35417,-0.99954 0.213,-0.51236 0.56897,-0.94209 0.80611,-1.44319 0.40154,-0.78247 0.73598,-1.59714 0.9694,-2.44651 0.25373,-0.81997 0.50566,-1.63514 0.61163,-2.49067 -0.002,-0.53851 0.0171,-1.07829 -0.0297,-1.61537 -0.21747,-1.65097 -2.4764,-2.54654 -4.06475,-2.48404 -0.64552,0.0381 -1.28869,0.10742 -1.92591,0.21942 -1.55927,0.26354 -3.10355,0.60884 -4.6572,0.90238 -2.208813,0.50991 -4.406698,1.06197 -6.601843,1.62779 -1.462334,0.38603 -2.91538,0.80452 -4.363588,1.24051 -1.071925,0.35706 -2.135039,0.73894 -3.172237,1.1885 -1.076691,0.49265 -2.16906,0.95297 -3.208171,1.52355 -0.535948,0.31334 -1.06725,0.63331 -1.57302,0.99416 -0.353687,0.21162 -0.695909,0.43947 -1.02799,0.68373 -0.377767,0.3253 -0.772481,0.63271 -1.117492,0.99404 -0.384384,0.3355 -0.787411,0.64711 -1.140756,1.01622 -0.392399,0.34188 -0.741323,0.71937 -1.051875,1.13925 -0.673301,0.84203 -1.298096,1.71683 -1.921346,2.59617 -0.626607,0.91645 -1.166717,1.88466 -1.778669,2.81087 -0.657725,1.03912 -1.423096,2.00613 -2.082134,3.04533 -0.865108,1.33585 -1.656815,2.7135 -2.415018,4.11299 -1.160376,1.96652 -2.30314,3.94312 -3.43204,5.92787 -0.647708,1.29449 -1.307762,2.58542 -1.863694,3.92284 -0.407331,1.04531 -0.795022,2.09924 -1.238612,3.12952 -0.390231,0.94673 -0.828101,1.8749 -1.150199,2.84914 -0.378844,0.96945 -0.738908,1.94571 -1.129732,2.91028 -0.406241,0.95282 -0.799168,1.91195 -1.259771,2.84025 -0.263403,0.63449 -0.584358,1.24517 -0.811707,1.89042 -0.145643,0.39575 -0.303123,0.78172 -0.410533,1.18983 -0.123219,0.35042 -0.178705,0.69573 -0.248375,1.05966 -0.116961,0.44057 -0.303125,0.85982 -0.239096,1.32718 -7.1e-5,0.50819 5.29e-4,1.01636 -0.0052,1.52454 5.29e-4,0.30671 -0.0064,0.61342 -0.0026,0.92013 0.0019,0.35898 0.0019,0.71795 0.0029,1.07694 -0.0019,0.44933 -0.0032,0.89874 0.0093,1.34794 0.02,0.43618 0.03432,0.87653 0.149506,1.30052 0.115665,0.26425 0.239985,0.42731 0.192492,0.73027 0.004,0.4087 0.06255,0.81359 0.179004,1.20601 0.260734,0.9283 0.706604,1.79577 0.979898,2.72168 0.712044,1.91181 1.251926,3.88108 1.939938,5.80118 1.177578,3.56731 2.258303,7.16514 3.386584,10.74822 1.247275,4.06855 2.365489,8.17486 3.44923,12.28971 0.667661,2.54725 1.359594,5.12533 1.681615,7.74015 z" />
    <path
       style="fill:#000000;stroke-width:0.264583"
       id="path2"
       d="m 69.638126,211.79667 c 0.02764,1.10176 0.01852,2.204 0.01318,3.30597 -0.0069,0.81556 -0.0033,1.6312 -0.01148,2.44675 -0.0038,0.42177 -0.0055,0.84359 -0.01225,1.26532 -2e-6,0.22825 -0.0016,0.45644 -0.0019,0.68468 0.0062,0.52587 0.01691,1.05181 0.02114,1.57777 -0.03398,0.79041 0.0024,1.56519 0.139303,2.34352 0.104349,0.44378 0.129937,0.90045 0.210556,1.34759 0.126333,0.31353 0.244626,0.62213 0.308147,0.95521 0.05899,0.44654 0.05242,0.89838 0.05552,1.34787 0.04999,0.45412 0.207399,0.88614 0.284353,1.33716 0.0623,0.53723 0.05642,1.07422 0.162814,1.60586 0.114257,0.43831 0.20203,0.88097 0.246774,1.33162 0.02299,0.35471 0.02835,0.71032 0.02739,1.06568 -0.0026,0.36254 0.0035,0.725 -7.94e-4,1.08756 -7.93e-4,0.39124 -2.27e-4,0.78247 0.0013,1.17371 -0.0033,0.30126 -0.0019,0.60251 -0.0072,0.90375 1.62e-4,0.21942 0.0021,0.43885 2.15e-4,0.65827 0.0016,0.21777 5.29e-4,0.43553 2.64e-4,0.6533 0.004,0.34655 0.0047,0.69312 0.0065,1.0397 0.0019,0.40569 -0.0021,0.81139 -0.0016,1.21707 0.0021,0.36342 0.0026,0.72685 -0.0039,1.09023 7.93e-4,0.1767 7.93e-4,0.0902 1.5e-5,0.25937 0,0 3.548536,1.80807 3.548536,1.80807 v 0 c -7.93e-4,-0.16957 -7.93e-4,-0.0831 1.6e-5,-0.25936 -0.0064,-0.36471 -0.0062,-0.72947 -0.0039,-1.09421 5.29e-4,-0.4062 -0.0035,-0.81241 -0.0016,-1.21861 0.0019,-0.34436 0.0024,-0.68872 0.0065,-1.03306 -1.93e-4,-0.21767 -0.0013,-0.43532 2.64e-4,-0.65299 -0.0021,-0.21936 3.2e-5,-0.43872 1.96e-4,-0.65808 -0.0054,-0.30367 -0.004,-0.60736 -0.0072,-0.91105 0.0016,-0.39043 0.0021,-0.78086 0.0024,-1.17129 -0.0031,-0.36241 0.0042,-0.72466 0.0035,-1.08704 -0.0013,-0.36536 0.0021,-0.73095 -0.02252,-1.09577 -0.02363,-0.47162 -0.09552,-0.93519 -0.22401,-1.39049 -0.143285,-0.51802 -0.148061,-1.03539 -0.17644,-1.57064 -0.04772,-0.44002 -0.13312,-0.87797 -0.305228,-1.28804 2.51e-4,-0.46425 -0.0053,-0.92873 -0.02683,-1.39251 -0.03159,-0.35127 -0.09157,-0.71266 -0.277106,-1.01838 -0.211704,-0.38522 -0.0914,-0.90069 -0.248827,-1.31294 -0.162534,-0.75697 -0.239395,-1.50673 -0.18896,-2.28332 0.0042,-0.51878 0.01495,-1.03754 0.02114,-1.55623 -2.65e-4,-0.22885 -0.0019,-0.45767 -0.0019,-0.68653 -0.0067,-0.4259 -0.0085,-0.85187 -0.01225,-1.2778 -0.0081,-0.81945 -0.0047,-1.63898 -0.01146,-2.45844 -0.0053,-1.09748 -0.01466,-2.19526 0.01318,-3.29253 z" />
  </g>
</svg>
