<svg
      xmlns="http://www.w3.org/2000/svg"
      fill="white"
      viewBox="0 0 24 24"
      className="w-6 h-6"
    >
      <path d="M12 2.2c3.2 0 3.6 0 4.9.1 1.2.1 1.9.2 2.4.4.6.2 1 .4 1.5.9.5.5.7.9.9 1.5.2.5.3 1.2.4 2.4.1 1.3.1 1.7.1 4.9s0 3.6-.1 4.9c-.1 1.2-.2 1.9-.4 2.4-.2.6-.4 1-.9 1.5-.5.5-.9.7-1.5.9-.5.2-1.2.3-2.4.4-1.3.1-1.7.1-4.9.1s-3.6 0-4.9-.1c-1.2-.1-1.9-.2-2.4-.4-.6-.2-1-.4-1.5-.9-.5-.5-.7-.9-.9-1.5-.2-.5-.3-1.2-.4-2.4C2.2 15.6 2.2 15.2 2.2 12s0-3.6.1-4.9c.1-1.2.2-1.9.4-2.4.2-.6.4-1 .9-1.5.5-.5.9-.7 1.5-.9.5-.2 1.2-.3 2.4-.4C8.4 2.2 8.8 2.2 12 2.2zm0 1.8c-3.1 0-3.5 0-4.7.1-1 .1-1.5.2-1.8.3-.5.2-.9.3-1.2.7-.3.3-.5.7-.7 1.2-.1.3-.3.8-.3 1.8C3.1 9.3 3.1 9.7 3.1 12s0 2.7.1 3.9c.1 1 .2 1.5.3 1.8.2.5.3.9.7 1.2.3.3.7.5 1.2.7.3.1.8.3 1.8.3 1.2.1 1.6.1 4.7.1s3.5 0 4.7-.1c1-.1 1.5-.2 1.8-.3.5-.2.9-.3 1.2-.7.3-.3.5-.7.7-1.2.1-.3.3-.8.3-1.8.1-1.2.1-1.6.1-4.7s0-3.5-.1-4.7c-.1-1-.2-1.5-.3-1.8-.2-.5-.3-.9-.7-1.2-.3-.3-.7-.5-1.2-.7-.3-.1-.8-.3-1.8-.3-1.2-.1-1.6-.1-4.7-.1zm0 3.5a6.3 6.3 0 1 1 0 12.6 6.3 6.3 0 0 1 0-12.6zm0 1.8a4.5 4.5 0 1 0 0 9 4.5 4.5 0 0 0 0-9zm5.3-2a1.5 1.5 0 1 1-3 0 1.5 1.5 0 0 1 3 0z" />
</svg>